<svg xmlns="http://www.w3.org/2000/svg" xmlns:xlink="http://www.w3.org/1999/xlink" viewBox="0 0 431.69 213.79"><defs><style>.cls-1,.cls-3,.cls-4,.cls-5{fill:none;}.cls-2{clip-path:url(#clip-path);}.cls-3,.cls-4{stroke:#ff151f;}.cls-3,.cls-5{stroke-linecap:round;stroke-linejoin:round;}.cls-4{stroke-miterlimit:10;}.cls-5{stroke:#514d57;}</style><clipPath id="clip-path" transform="translate(-35.95 -160.59)"><rect class="cls-1" width="500" height="500"/></clipPath></defs><title>Asset 8</title><g id="Layer_2" data-name="Layer 2"><g id="Layer_1-2" data-name="Layer 1"><g class="cls-2"><polyline class="cls-3" points="176.5 182.51 211.81 61.63 226.72 112.27"/><g class="cls-2"><path class="cls-4" d="M259.49,210.25a11.61,11.61,0,1,1-11.6-11.61A11.6,11.6,0,0,1,259.49,210.25Z" transform="translate(-35.95 -160.59)"/><path class="cls-3" d="M268.36,187.28a32.25,32.25,0,0,1-.71,48.36" transform="translate(-35.95 -160.59)"/><path class="cls-3" d="M227.75,187.28a32.23,32.23,0,0,0,.71,48.36" transform="translate(-35.95 -160.59)"/><path class="cls-3" d="M213.38,170.35a54.84,54.84,0,0,0,1.21,82.22" transform="translate(-35.95 -160.59)"/><path class="cls-3" d="M284.88,170.35a54.82,54.82,0,0,1-1.21,82.22" transform="translate(-35.95 -160.59)"/><line class="cls-3" x1="198.94" y1="107.91" x2="225.49" y2="107.91"/><line class="cls-3" x1="190.62" y1="135.43" x2="224.06" y2="135.22"/><line class="cls-3" x1="185.37" y1="154.45" x2="224.33" y2="180.61"/><line class="cls-3" x1="224.23" y1="165.05" x2="176.5" y2="196.1"/><path class="cls-4" d="M80.16,341.84a32.11,32.11,0,1,1,8.41,8.43" transform="translate(-35.95 -160.59)"/><path class="cls-5" d="M119.75,323.73A12.79,12.79,0,1,1,107,311,12.79,12.79,0,0,1,119.75,323.73Z" transform="translate(-35.95 -160.59)"/><line class="cls-3" x1="122.3" y1="173.09" x2="166.2" y2="173.09"/><line class="cls-3" x1="122.3" y1="183.16" x2="166.2" y2="183.16"/><line class="cls-3" x1="122.3" y1="192.97" x2="166.2" y2="192.97"/><line class="cls-3" x1="112.75" y1="113.44" x2="112.75" y2="212.86"/><path class="cls-3" d="M87.23,373.7H74.92a9.93,9.93,0,0,1-9.9-9.9V283.92a9.94,9.94,0,0,1,9.9-9.9H203.09a9.93,9.93,0,0,1,9.9,9.9V363.8a9.92,9.92,0,0,1-9.9,9.9H99.63" transform="translate(-35.95 -160.59)"/><path class="cls-3" d="M78.26,272.6v-3.1A5.57,5.57,0,0,1,83.81,264H95.17a5.57,5.57,0,0,1,5.56,5.55v3.1" transform="translate(-35.95 -160.59)"/><path class="cls-3" d="M148.24,272.6v-2.11a5.57,5.57,0,0,1,5.55-5.55h11.36a5.57,5.57,0,0,1,5.56,5.55v2.11" transform="translate(-35.95 -160.59)"/><path class="cls-3" d="M177.16,272.6v-2.11a5.57,5.57,0,0,1,5.56-5.55h11.36a5.57,5.57,0,0,1,5.55,5.55v2.11" transform="translate(-35.95 -160.59)"/><circle class="cls-3" cx="153.72" cy="231.21" r="5.29" transform="translate(-112.72 -84.16) rotate(-22.5)"/><line class="cls-3" x1="63.42" y1="105.69" x2="112.22" y2="72.3"/><path class="cls-3" d="M195.69,299.85H167a8,8,0,1,1,0-16h28.66a8,8,0,1,1,0,16Z" transform="translate(-35.95 -160.59)"/><path class="cls-3" d="M174.77,316.37a8.52,8.52,0,1,1-8.52-8.52A8.52,8.52,0,0,1,174.77,316.37Z" transform="translate(-35.95 -160.59)"/><path class="cls-3" d="M204.47,316.37a8.52,8.52,0,1,1-8.52-8.52A8.52,8.52,0,0,1,204.47,316.37Z" transform="translate(-35.95 -160.59)"/><path class="cls-3" d="M458.77,333.46v35a5.33,5.33,0,0,1-5.31,5.31H422.33a5.33,5.33,0,0,1-5.31-5.31V322.15a5.32,5.32,0,0,1,5.31-5.3H440.7Z" transform="translate(-35.95 -160.59)"/><path class="cls-4" d="M436.71,356v-7.26H433a.67.67,0,0,1-.66-.66v-6.92a.46.46,0,0,1,0-.21h-7.27V356a.52.52,0,0,1,.21,0Z" transform="translate(-35.95 -160.59)"/><path class="cls-4" d="M440.31,357.3h-15a.78.78,0,0,1-.21,0V365h15.2s0-.05,0-.07Z" transform="translate(-35.95 -160.59)"/><path class="cls-4" d="M442.05,347.38h7a.6.6,0,0,1,.34.11v-6.57H442a.64.64,0,0,1,.06.28Z" transform="translate(-35.95 -160.59)"/><path class="cls-4" d="M438,348.71V356H441a.67.67,0,0,1,.66.66v8.31a.17.17,0,0,1,0,.07h7.79v-16.4a.67.67,0,0,1-.34.1Z" transform="translate(-35.95 -160.59)"/><path class="cls-4" d="M433.68,347.38h7.05V341.2a.64.64,0,0,1,.06-.28h-7.15a.65.65,0,0,1,0,.21Z" transform="translate(-35.95 -160.59)"/><path class="cls-3" d="M282.32,369.52H270a9.92,9.92,0,0,1-9.9-9.9V279.74a9.93,9.93,0,0,1,9.9-9.9H398.19a9.94,9.94,0,0,1,9.9,9.9v79.88a9.93,9.93,0,0,1-9.9,9.9H294.72" transform="translate(-35.95 -160.59)"/><path class="cls-3" d="M346.92,281h7.35c3.26,0,5.92,3.19,5.92,7.08v57.07c0,3.89-2.66,7.07-5.92,7.07H277.72c-3.26,0-5.92-3.18-5.92-7.07V288.12c0-3.89,2.66-7.08,5.92-7.08h61.8" transform="translate(-35.95 -160.59)"/><line class="cls-3" x1="334.74" y1="109.23" x2="335.56" y2="208.84"/><path class="cls-4" d="M396.48,285.24a5.12,5.12,0,1,1-5.11-5.12A5.11,5.11,0,0,1,396.48,285.24Z" transform="translate(-35.95 -160.59)"/><path class="cls-4" d="M396.48,304.27a5.12,5.12,0,1,1-5.11-5.11A5.11,5.11,0,0,1,396.48,304.27Z" transform="translate(-35.95 -160.59)"/><path class="cls-4" d="M396.48,323.31a5.12,5.12,0,1,1-5.11-5.11A5.11,5.11,0,0,1,396.48,323.31Z" transform="translate(-35.95 -160.59)"/><line class="cls-3" x1="335.81" y1="179.08" x2="371.54" y2="179.08"/><line class="cls-3" x1="343.32" y1="186.75" x2="355.38" y2="186.75"/><line class="cls-3" x1="343.89" y1="194.14" x2="350.86" y2="194.14"/><path class="cls-3" d="M314.63,267.76h0a6.73,6.73,0,0,1,6.71-6.71h22.05a6.73,6.73,0,0,1,6.71,6.71" transform="translate(-35.95 -160.59)"/><line class="cls-3" x1="274.43" y1="79.78" x2="294.98" y2="100.46"/><line class="cls-3" x1="319.36" y1="79.78" x2="295.39" y2="100.32"/><path class="cls-3" d="M282.3,370.17h0a3.7,3.7,0,0,1-3.69,3.7H272a3.71,3.71,0,0,1-3.7-3.7" transform="translate(-35.95 -160.59)"/><path class="cls-3" d="M397.35,370.17h0a3.71,3.71,0,0,1-3.7,3.7h-6.57a3.7,3.7,0,0,1-3.7-3.7" transform="translate(-35.95 -160.59)"/><line class="cls-3" x1="16.79" y1="213.25" x2="431.19" y2="213.25"/><line class="cls-5" x1="6.76" y1="201.77" x2="6.76" y2="189.25"/><line class="cls-5" x1="0.5" y1="195.51" x2="13.02" y2="195.51"/><line class="cls-5" x1="295.33" y1="58.96" x2="303.58" y2="49.54"/><line class="cls-5" x1="294.75" y1="50.12" x2="304.17" y2="58.38"/><line class="cls-5" x1="36.22" y1="87.81" x2="38.34" y2="75.47"/><line class="cls-5" x1="31.11" y1="80.58" x2="43.45" y2="82.7"/><circle class="cls-5" cx="129.7" cy="207.52" r="4.17" transform="translate(-145 100.63) rotate(-70.67)"/><path class="cls-5" d="M445.3,296.74a4.17,4.17,0,1,1-4.17-4.17A4.17,4.17,0,0,1,445.3,296.74Z" transform="translate(-35.95 -160.59)"/><path class="cls-5" d="M390,238.83a4.18,4.18,0,1,1-4.17-4.18A4.17,4.17,0,0,1,390,238.83Z" transform="translate(-35.95 -160.59)"/><circle class="cls-5" cx="251.35" cy="165.26" r="4.17" transform="translate(-57.32 131.6) rotate(-58.28)"/><path class="cls-5" d="M241.89,355.59l3.66-1.07-1.07,3.66a6.17,6.17,0,0,0,0,3.51l1.07,3.66-3.66-1.07a6.2,6.2,0,0,0-3.52,0l-3.65,1.07,1.07-3.66a6.35,6.35,0,0,0,0-3.51l-1.07-3.66,3.65,1.07A6.2,6.2,0,0,0,241.89,355.59Z" transform="translate(-35.95 -160.59)"/></g></g></g></g></svg>