<svg xmlns="http://www.w3.org/2000/svg" xmlns:xlink="http://www.w3.org/1999/xlink" viewBox="0 0 342.8 320.51"><defs><style>.cls-1,.cls-3,.cls-4,.cls-5{fill:none;}.cls-2{clip-path:url(#clip-path);}.cls-3,.cls-4{stroke:#ff151f;}.cls-3,.cls-5{stroke-linecap:round;stroke-linejoin:round;}.cls-4{stroke-miterlimit:10;}.cls-5{stroke:#514d57;}</style><clipPath id="clip-path" transform="translate(-90.19 -107.51)"><rect class="cls-1" width="500" height="500"/></clipPath></defs><title>Asset 13</title><g id="Layer_2" data-name="Layer 2"><g id="Layer_1-2" data-name="Layer 1"><g class="cls-2"><line class="cls-3" x1="0.5" y1="320.01" x2="342.3" y2="320.01"/><line class="cls-3" x1="25.29" y1="151.8" x2="75.7" y2="197.03"/><g class="cls-2"><path class="cls-4" d="M332.63,261.89s-20,16.16-54.94-2.59c0,0-50.41,62.69-73,14.87,0,0,38.13-48.47,61.4-71.09s53-5.82,53-5.82l11-10.34,75,73.68-55.88,58.83-45.59-44.62S336.5,278.05,332.63,261.89Z" transform="translate(-90.19 -107.51)"/><polyline class="cls-3" points="279.92 37.4 239.85 79.41 320.64 158.26"/><path class="cls-4" d="M166.41,339.65l-.11-.11a13,13,0,0,1,0-18.33l13.12-13.11a13,13,0,0,1,18.32,0l.12.11a13,13,0,0,1,0,18.33l-13.12,13.11A13,13,0,0,1,166.41,339.65Z" transform="translate(-90.19 -107.51)"/><rect class="cls-4" x="182.47" y="332.49" width="44.46" height="26.08" rx="12.96" transform="translate(-274.56 138.47) rotate(-45)"/><path class="cls-4" d="M211.66,382.3l-.12-.11a13,13,0,0,1,0-18.32l13.12-13.12a13,13,0,0,1,18.33,0l.11.11a13,13,0,0,1,0,18.33L230,382.3A13,13,0,0,1,211.66,382.3Z" transform="translate(-90.19 -107.51)"/><path class="cls-4" d="M234.92,402.34l-.11-.11a13,13,0,0,1,0-18.33l13.11-13.11a13,13,0,0,1,18.33,0l.11.11a13,13,0,0,1,0,18.33l-13.11,13.11A13,13,0,0,1,234.92,402.34Z" transform="translate(-90.19 -107.51)"/><polyline class="cls-3" points="20.12 156.97 101.98 68.64 65.36 32.45"/><path class="cls-3" d="M197.77,183.9,218,202s10.34,10.34,19,2.58c0,0,8.18-8.18,17.66-.86" transform="translate(-90.19 -107.51)"/><path class="cls-3" d="M348.87,319l7,7a16.07,16.07,0,0,1-.86,20.68s-9.91,7.75-19.39,0l-11.2-11.64" transform="translate(-90.19 -107.51)"/><path class="cls-3" d="M302,355.38l14.21,14.22s10.34,6.9,18.53-2.15.86-20.68.86-20.68" transform="translate(-90.19 -107.51)"/><path class="cls-3" d="M282.22,376.5,294.71,389s12.49,6,19-3,2.58-16.38,2.58-16.38" transform="translate(-90.19 -107.51)"/><path class="cls-3" d="M265.39,398.72l6.46,5.58a17.85,17.85,0,0,0,5.08,2.79c4,1.24,9.94,1.37,15.39-4.49,7.83-8.43,2.37-13.58,2.37-13.58" transform="translate(-90.19 -107.51)"/><path class="cls-3" d="M231.53,124.5l7.83,39.9a3.59,3.59,0,0,0,3.52,2.9h57.23a3.59,3.59,0,0,0,3.55-3.11l5.65-41.44a3.58,3.58,0,0,0-5.13-3.7L290,126a3.58,3.58,0,0,1-4.34-.94l-13-15.77a3.59,3.59,0,0,0-5.61.1l-12.7,16.48a3.59,3.59,0,0,1-4.39,1l-13.28-6.37A3.59,3.59,0,0,0,231.53,124.5Z" transform="translate(-90.19 -107.51)"/><line class="cls-5" x1="64.04" y1="267.37" x2="64.04" y2="254.85"/><line class="cls-5" x1="57.78" y1="261.11" x2="70.3" y2="261.11"/><line class="cls-5" x1="242.65" y1="47.86" x2="250.91" y2="38.45"/><line class="cls-5" x1="242.07" y1="39.03" x2="251.49" y2="47.28"/><line class="cls-5" x1="331.81" y1="141.28" x2="333.93" y2="128.94"/><line class="cls-5" x1="326.7" y1="134.05" x2="339.04" y2="136.17"/><path class="cls-5" d="M119.22,307.83a4.18,4.18,0,1,1-4.18-4.18A4.18,4.18,0,0,1,119.22,307.83Z" transform="translate(-90.19 -107.51)"/><circle class="cls-5" cx="328.64" cy="196.67" r="4.17"/><path class="cls-5" d="M109.3,205.3a4.17,4.17,0,1,1-4.17-4.17A4.17,4.17,0,0,1,109.3,205.3Z" transform="translate(-90.19 -107.51)"/><circle class="cls-5" cx="362.09" cy="399.65" r="4.17" transform="translate(-127.81 -69.88) rotate(-5.65)"/><circle class="cls-5" cx="27.2" cy="287.84" r="4.17"/><path class="cls-5" d="M203.63,133.33l3.66-1.07-1.07,3.66a6.17,6.17,0,0,0,0,3.51l1.07,3.66L203.63,142a6.2,6.2,0,0,0-3.52,0l-3.66,1.07,1.08-3.66a6.35,6.35,0,0,0,0-3.51l-1.08-3.66,3.66,1.07A6.2,6.2,0,0,0,203.63,133.33Z" transform="translate(-90.19 -107.51)"/><path class="cls-5" d="M377.37,340.72l3.66-1.07L380,343.31a6.2,6.2,0,0,0,0,3.52l1.07,3.65-3.66-1.07a6.38,6.38,0,0,0-3.52,0l-3.66,1.07,1.08-3.65a6.38,6.38,0,0,0,0-3.52l-1.08-3.66,3.66,1.07A6.2,6.2,0,0,0,377.37,340.72Z" transform="translate(-90.19 -107.51)"/></g></g></g></g></svg>