<svg xmlns="http://www.w3.org/2000/svg" xmlns:xlink="http://www.w3.org/1999/xlink" viewBox="0 0 368.73 289.79"><defs><style>.cls-1,.cls-3,.cls-5{fill:none;}.cls-2{clip-path:url(#clip-path);}.cls-3{stroke:#ff151f;}.cls-3,.cls-5{stroke-linecap:round;stroke-linejoin:round;}.cls-4{fill:#111015;}.cls-5{stroke:#514d57;}.cls-6{fill:#ff151f;}</style><clipPath id="clip-path" transform="translate(-78.12 -128.17)"><rect class="cls-1" width="500" height="500"/></clipPath></defs><title>Asset 11</title><g id="Layer_2" data-name="Layer 2"><g id="Layer_1-2" data-name="Layer 1"><g class="cls-2"><line class="cls-3" x1="0.5" y1="289.29" x2="368.23" y2="289.29"/><polyline class="cls-3" points="249.18 118.75 283.17 67.14 342.48 31.68"/><g class="cls-2"><path class="cls-4" d="M334.55,244.59a9,9,0,1,1-11.47-5.39,9,9,0,0,1,11.47,5.39" transform="translate(-78.12 -128.17)"/><path class="cls-3" d="M334.55,244.59a9,9,0,1,1-11.47-5.39A9,9,0,0,1,334.55,244.59Z" transform="translate(-78.12 -128.17)"/><path class="cls-4" d="M370.58,192.25a9,9,0,1,1-11.47-5.39,9,9,0,0,1,11.47,5.39" transform="translate(-78.12 -128.17)"/><path class="cls-3" d="M370.58,192.25a9,9,0,1,1-11.47-5.39A9,9,0,0,1,370.58,192.25Z" transform="translate(-78.12 -128.17)"/><path class="cls-4" d="M428.73,158.36A9,9,0,1,1,417.26,153a9,9,0,0,1,11.47,5.39" transform="translate(-78.12 -128.17)"/><path class="cls-3" d="M428.73,158.36A9,9,0,1,1,417.26,153,9,9,0,0,1,428.73,158.36Z" transform="translate(-78.12 -128.17)"/><polyline class="cls-3" points="9.9 204.23 59.91 156.55 96.66 142.43"/><path class="cls-4" d="M97.31,329.34A9,9,0,1,1,85.84,324a9,9,0,0,1,11.47,5.39" transform="translate(-78.12 -128.17)"/><path class="cls-3" d="M97.31,329.34A9,9,0,1,1,85.84,324,9,9,0,0,1,97.31,329.34Z" transform="translate(-78.12 -128.17)"/><path class="cls-4" d="M146.15,283.23a9,9,0,1,1-11.47-5.38,9,9,0,0,1,11.47,5.38" transform="translate(-78.12 -128.17)"/><path class="cls-3" d="M146.15,283.23a9,9,0,1,1-11.47-5.38A9,9,0,0,1,146.15,283.23Z" transform="translate(-78.12 -128.17)"/><polyline class="cls-3" points="146.98 190.22 110.05 190.22 110.05 158.72 124.57 133.75"/><path class="cls-3" d="M203.38,275.31V185.15s3.62-39.46,50-56.48" transform="translate(-78.12 -128.17)"/><polyline class="cls-3" points="202.02 190.22 242.57 190.22 242.57 158.72 227.88 133.35"/><path class="cls-3" d="M305.49,275.31V185.15s-3.62-39.46-50-56.48" transform="translate(-78.12 -128.17)"/><path class="cls-3" d="M276.16,211.22a21.37,21.37,0,1,1-21.36-21.36A21.36,21.36,0,0,1,276.16,211.22Z" transform="translate(-78.12 -128.17)"/><path class="cls-3" d="M288.47,211.22A33.64,33.64,0,1,1,270,181.16" transform="translate(-78.12 -128.17)"/><path class="cls-3" d="M282.72,192.39a33.24,33.24,0,0,1,3.93,7.89" transform="translate(-78.12 -128.17)"/><path class="cls-3" d="M215.33,412.35a42.91,42.91,0,0,1,85.81,0" transform="translate(-78.12 -128.17)"/><path class="cls-3" d="M180.08,416.63a37.47,37.47,0,0,1,37.47-37.47" transform="translate(-78.12 -128.17)"/><path class="cls-3" d="M301.82,379.16a37.47,37.47,0,0,1,37.47,37.48" transform="translate(-78.12 -128.17)"/><line class="cls-3" x1="181.02" y1="221.36" x2="181.02" y2="149.43"/><line class="cls-3" x1="216.14" y1="198.91" x2="216.14" y2="219.55"/><line class="cls-3" x1="142.28" y1="199.28" x2="142.28" y2="223.17"/><line class="cls-5" x1="74.93" y1="227.15" x2="74.93" y2="214.63"/><line class="cls-5" x1="68.67" y1="220.89" x2="81.19" y2="220.89"/><line class="cls-5" x1="245.33" y1="53.03" x2="253.58" y2="43.61"/><line class="cls-5" x1="244.74" y1="44.2" x2="254.16" y2="52.45"/><line class="cls-5" x1="300.83" y1="153.1" x2="302.95" y2="140.76"/><line class="cls-5" x1="295.72" y1="145.87" x2="308.06" y2="147.99"/><path class="cls-5" d="M160.3,227.61a4.17,4.17,0,1,1-4.17-4.18A4.17,4.17,0,0,1,160.3,227.61Z" transform="translate(-78.12 -128.17)"/><circle class="cls-5" cx="242.48" cy="218.66" r="4.17"/><circle class="cls-5" cx="115.7" cy="253.43" r="4.17" transform="translate(-233.17 190.95) rotate(-79.1)"/><circle class="cls-5" cx="379.7" cy="395.35" r="4.17" transform="translate(-115.23 -88.83) rotate(-5.65)"/><circle class="cls-5" cx="39.27" cy="267.18" r="4.17"/><path class="cls-5" d="M175.46,175.59l3.65-1.07L178,178.18a6.38,6.38,0,0,0,0,3.52l1.07,3.65-3.65-1.07a6.2,6.2,0,0,0-3.52,0l-3.66,1.07,1.07-3.65a6.2,6.2,0,0,0,0-3.52l-1.07-3.66,3.66,1.07A6.2,6.2,0,0,0,175.46,175.59Z" transform="translate(-78.12 -128.17)"/><path class="cls-5" d="M377.37,340.72l3.66-1.07L380,343.31a6.2,6.2,0,0,0,0,3.52l1.07,3.65-3.66-1.07a6.38,6.38,0,0,0-3.52,0l-3.66,1.07,1.08-3.65a6.38,6.38,0,0,0,0-3.52l-1.08-3.66,3.66,1.07A6.2,6.2,0,0,0,377.37,340.72Z" transform="translate(-78.12 -128.17)"/><path class="cls-6" d="M260.66,213.21a8.3,8.3,0,0,0,1.11-3.65,5,5,0,0,0-.53-2.53,7.17,7.17,0,0,0-2.76-2.71,7.86,7.86,0,0,1-2-1.73l-.1-.12a3.52,3.52,0,0,1-.71-1.28.77.77,0,0,0-1.53.1V215a4.41,4.41,0,0,0-2.3-.62c-2.11,0-3.83,1.37-3.83,3.06s1.72,3.07,3.83,3.07,3.84-1.37,3.84-3.07v-8.94a5.53,5.53,0,0,1,3.56,4.18,3.47,3.47,0,0,1-.3.42.76.76,0,0,0,.07,1.08.75.75,0,0,0,1.08-.07,4.65,4.65,0,0,0,.56-.79.18.18,0,0,0,.05-.07" transform="translate(-78.12 -128.17)"/><line class="cls-3" x1="200.29" y1="204.96" x2="200.29" y2="232.94"/><line class="cls-3" x1="160.77" y1="208.09" x2="160.77" y2="235.09"/><line class="cls-3" x1="132.2" y1="229.22" x2="132.2" y2="239.4"/><line class="cls-3" x1="223.18" y1="222.96" x2="223.18" y2="239.79"/></g></g></g></g></svg>