<svg xmlns="http://www.w3.org/2000/svg" xmlns:xlink="http://www.w3.org/1999/xlink" viewBox="0 0 373.63 212.39"><defs><style>.cls-1,.cls-3,.cls-4{fill:none;}.cls-2{clip-path:url(#clip-path);}.cls-3{stroke:#ff151f;}.cls-3,.cls-4{stroke-linecap:round;stroke-linejoin:round;}.cls-4{stroke:#514d57;}</style><clipPath id="clip-path" transform="translate(-50.57 -161.65)"><rect class="cls-1" width="500" height="500"/></clipPath></defs><title>Asset 12</title><g id="Layer_2" data-name="Layer 2"><g id="Layer_1-2" data-name="Layer 1"><g class="cls-2"><line class="cls-3" x1="21.28" y1="211.89" x2="373.13" y2="211.89"/><line class="cls-3" x1="65.3" y1="198.74" x2="65.3" y2="211.26"/><line class="cls-3" x1="147.21" y1="198.74" x2="147.21" y2="211.26"/><line class="cls-3" x1="86.17" y1="204.22" x2="86.17" y2="211.52"/><line class="cls-3" x1="117.47" y1="204.22" x2="117.47" y2="211.52"/><line class="cls-3" x1="236.69" y1="198.74" x2="236.69" y2="211.26"/><line class="cls-3" x1="175.65" y1="204.22" x2="175.65" y2="211.52"/><line class="cls-3" x1="206.95" y1="204.22" x2="206.95" y2="211.52"/><line class="cls-3" x1="326.17" y1="198.74" x2="326.17" y2="211.26"/><line class="cls-3" x1="265.13" y1="204.22" x2="265.13" y2="211.52"/><line class="cls-3" x1="296.43" y1="204.22" x2="296.43" y2="211.52"/><g class="cls-2"><path class="cls-3" d="M92.23,334s9.92,21.92,20.35,6.79,47-72,69.92-71.48,37.56,16.17,56.34,31.82,38.61,38.09,60,19.31,27.13-41.74,48.53-14.09,32.34,82.44,63.65-3.65" transform="translate(-50.57 -161.65)"/><polyline class="cls-3" points="193.62 122.57 193.62 99.48 218.27 99.48 218.27 140.96"/><polyline class="cls-3" points="230.79 147.61 230.79 69.35 254.66 69.35 254.66 127.65"/><polyline class="cls-3" points="267.58 120.22 267.58 42.35 293.4 42.35 293.4 113.57"/><path class="cls-3" d="M153.45,194.74a64.79,64.79,0,0,0-6.57.34l2.29,27.32a35.64,35.64,0,0,1,4.28-.27,35.22,35.22,0,0,1,35.22,35.22c0,.82,0,1.63-.09,2.43,9.12,2.33,18.3,7.7,25.59,12.86a62.63,62.63,0,0,0-60.72-77.9Z" transform="translate(-50.57 -161.65)"/><path class="cls-3" d="M90.84,257.35a62.55,62.55,0,0,0,29.73,53.27c4-5.61,10-13.73,16.92-21.88A35.2,35.2,0,0,1,126,235.36l-20.83-17.81A62.35,62.35,0,0,0,90.84,257.35Z" transform="translate(-50.57 -161.65)"/><path class="cls-3" d="M105.12,217.55,126,235.36a35.16,35.16,0,0,1,23.22-13l-2.29-27.32A62.54,62.54,0,0,0,105.12,217.55Z" transform="translate(-50.57 -161.65)"/><line class="cls-3" x1="71.8" y1="41.31" x2="67.82" y2="67.13"/><line class="cls-3" x1="62.11" y1="48.2" x2="60.26" y2="60.48"/><line class="cls-3" x1="82.82" y1="36.48" x2="75.06" y2="73.26"/><line class="cls-3" x1="91.1" y1="34.33" x2="83.12" y2="66.35"/><line class="cls-3" x1="96.97" y1="43.72" x2="91.95" y2="62.11"/><line class="cls-4" x1="6.76" y1="84.75" x2="6.76" y2="72.22"/><line class="cls-4" x1="0.5" y1="78.48" x2="13.02" y2="78.48"/><line class="cls-4" x1="309.42" y1="16.67" x2="317.67" y2="7.25"/><line class="cls-4" x1="308.83" y1="7.84" x2="318.25" y2="16.09"/><line class="cls-4" x1="340.27" y1="107.74" x2="342.39" y2="95.4"/><line class="cls-4" x1="335.16" y1="100.51" x2="347.5" y2="102.63"/><path class="cls-4" d="M79.06,299.86a4.18,4.18,0,1,1-4.18-4.17A4.18,4.18,0,0,1,79.06,299.86Z" transform="translate(-50.57 -161.65)"/><circle class="cls-4" cx="337.1" cy="163.13" r="4.17"/><circle class="cls-4" cx="156.41" cy="261.78" r="4.17" transform="translate(-184.87 192.21) rotate(-76.72)"/><circle class="cls-4" cx="248.65" cy="221.22" r="4.17" transform="translate(-120.82 154.78) rotate(-58.28)"/><path class="cls-4" d="M157.35,163.22l3.66-1.07-1.08,3.66a6.38,6.38,0,0,0,0,3.52L161,173l-3.66-1.07a6.38,6.38,0,0,0-3.52,0L150.17,173l1.07-3.65a6.2,6.2,0,0,0,0-3.52l-1.07-3.66,3.66,1.07A6.2,6.2,0,0,0,157.35,163.22Z" transform="translate(-50.57 -161.65)"/><path class="cls-4" d="M413.91,357l3.66-1.07-1.08,3.66a6.35,6.35,0,0,0,0,3.51l1.08,3.66-3.66-1.07a6.2,6.2,0,0,0-3.52,0l-3.66,1.07,1.07-3.66a6.17,6.17,0,0,0,0-3.51L406.73,356l3.66,1.07A6.2,6.2,0,0,0,413.91,357Z" transform="translate(-50.57 -161.65)"/></g></g></g></g></svg>