<svg xmlns="http://www.w3.org/2000/svg" xmlns:xlink="http://www.w3.org/1999/xlink" viewBox="0 0 381.66 259.95"><defs><style>.cls-1,.cls-3,.cls-4{fill:none;}.cls-2{clip-path:url(#clip-path);}.cls-3{stroke:#ff151f;}.cls-3,.cls-4{stroke-linecap:round;stroke-linejoin:round;}.cls-4{stroke:#514d57;}</style><clipPath id="clip-path" transform="translate(-65.19 -114.5)"><rect class="cls-1" width="500" height="500"/></clipPath></defs><title>Asset 9</title><g id="Layer_2" data-name="Layer 2"><g id="Layer_1-2" data-name="Layer 1"><g class="cls-2"><g class="cls-2"><path class="cls-3" d="M149.77,157c1.43-.13,1.52,2.11.07,2.2-.41,0-1.28-.35-1.59-.15-.66.43-.92,1.15-1.74,1.33-1,.23-1,.64-1.67,1.4s-.64.75,0,1.57a4.43,4.43,0,0,1,.51,2c0,.87-1.21,1-.74,2.09.36.83.15.49-.58.87s-.74,1.36-1.13,2c-.77,1.22-2.54,1.79-2.91,3.28-.14.58.47,1.65-.11,2.09a6,6,0,0,1-1.87,1c-.64.19-1.48.15-2,.67-.76.81-.63,2.12-1,3.1a6.52,6.52,0,0,1-1.31,2c-.6.79-.95,1.76-1.61,2.52-.32.36-1,1.45-1.41,1.64-.72.33-1.77-.59-2.35.31a8.19,8.19,0,0,1-1.37,1.86c-.67.62-.55,1.57-1,2.28s-1.28.81-1.89,1.28-.41,1.26-.75,1.93c-.48.95-3,.24-4,.4a9.12,9.12,0,0,0-2.62.47c-.4.24-1.45,1.16-1.73.63a2.78,2.78,0,0,1-.21-2c.1-.59.35-1.15-.46-1.1a6.29,6.29,0,0,0-5.17,2.68c-.79,1-1,1.91-2.22,2.59a8.1,8.1,0,0,0-2.69,1.93c-.93,1.25-.57,5.19,1.35,5.44,1,.14,1.65.92,2.76.85s.52,1.18.12,1.9a3.26,3.26,0,0,0-.62,2.87,8.47,8.47,0,0,0,1.77,3,2,2,0,0,0,2,.35c1.51-.23.34.83.61,1.81.63,2.32,3.46,6,2,8.38-.3.5-.59.29-.72,1-.1.51-.51,0-.87.09.07,0-.06-2.05-.81-2-1.08.06-2,.81-3,.94-.39.05-1-.23-1.31.14a2,2,0,0,0-.24,1.36,9.71,9.71,0,0,1-2.08-.34c-.73-.29-1-1.21-1.73-1.49s-1.22.43-1.89.63-2.14-.47-2.92-.65c-.58-.14-1.3-.58-1.91-.35a1.66,1.66,0,0,0-.7,1.79c.17.54-.07,1.45-.8,1.18-.34-.13-.67,0-1-.05s-.68-.54-1.14-.64c-1.67-.37-1.36,2.26-1.61,3-.19.58-1.24.92-.42,1.61.21.18.54.61.82.68s.49-.28.72,0c.69.85,1.77,1.44,2,2.54s1.77,2.36,2.84,3a23.55,23.55,0,0,0,4.1,2,8.92,8.92,0,0,0,2.31.11c1.07.05.11-1.41,1.32-1a2.32,2.32,0,0,0,2.24-.24c.41-.37.84-.69,1.42-.28.24.17-1.16,1.34-1.27,1.42-.76.65-1.52.25-2.32.71-.63.37-1.52.43-2.06.85-.72.55-1.28-.3-2,.1-.3.18-1.25.82-1.5.34-.36-.67-.35-1.19-1.26-1.21a2.06,2.06,0,0,0-2,2.39c.17,1.66,1.93,3.06,3,4.19s2.33,2.38,3.41,3.72,1.88,3,3.21,4.33c.63.61,1.54.75,1.91,1.6s1.39.81,2.22,1.16,1.24,1.24,2.12.66c.26-.17.64-.62,1-.57a2.51,2.51,0,0,0,1.41,0c.67-.24,1.84-.23,2.36-.7a3.55,3.55,0,0,1,2.18-1,1.86,1.86,0,0,0,1.51-.87c.47-.63,1.73-.22,2.19-1.08.21-.37.25-.8.47-1.17.32-.52.85-.78,1.18-1.25.55-.79,0-1.52-.38-2.21-.14-.27.18-.37.34-.49.41-.32.13-.79,0-1.18a1.9,1.9,0,0,1,.73-2.49c-.21.12-.13,1.36-.12,1.58,0,1.15.51.55,1.24.71.23.05-1.09,1.06-1.1,1.3,0,1.19.82,1.19,1.6,1.31-.33-.05-.54.73-.53,1,0,.55,0,.46-.38.74a1.45,1.45,0,0,0-.52,1.55c.12.83.66.82,1,1.43.22.41-.35.67.14,1.2.65.69.35,1.21.69,2a3,3,0,0,1,.33,1.27c0,.79-1.2,1.12-1.31,2-.15,1-.07,2.24-.73,3.14-1,1.35.93,2,.44,3.17-.33.8.16.91.34,1.59a9.87,9.87,0,0,1-.14,1.93c0,.78.44,1.44.49,2.16.06,1-.61,1.05.12,1.93.38.46-.2.88-.31,1.31s.59,1.08,1,1.29c.57.32-.15,1,.16,1.54s.83.5.91,1.14c.14,1.05.82,1.83.87,3,0,.22-.37,1.29-.23,1.41.78.61.4.62.62,1.55a2,2,0,0,1,.34.31c.06.34-.18.87-.17,1.24,0,.81.2,1.6.27,2.4a11.32,11.32,0,0,0,1.09,4.81c.32.63.34,1.36.67,2,.14.27.59,1.63.85,1.7.42.11.48.92.58,1.31s.07.78.39.93.7,0,.87.17c-.16-.18-1.59.58-.27,1.36.87.53.7,1.79,1.31,2.55.31.37.75.11.82.64,0,.19-.11,1,.11,1.09s1.17.08,1.19.55-.3.73.05,1.17a5.28,5.28,0,0,1,1.35,2.57,3.82,3.82,0,0,0-.24.55,2.12,2.12,0,0,0,.48,1.08,12.43,12.43,0,0,1,.76,1.87,3.3,3.3,0,0,1,.57,1.65,15.55,15.55,0,0,0,.11,2.26c.1.82,0,1.74.22,2.54.1.44.65.56.8,1,.22.57-.23,1.19.4,1.52.27.15.44.86.52,1.11a27.29,27.29,0,0,0,1.1,3.19,3.91,3.91,0,0,0,.81,1.24c.38.36,1.08.23,1.33.62a18.62,18.62,0,0,0,2,2.37c.34.37.27,1.08.51,1.53a7.81,7.81,0,0,0,.89,1.46c.43.53.16,1.2.6,1.69a2.68,2.68,0,0,1,.55,1.72c0,.52.47.73.55,1.21s-.13,1.21.13,1.64.43,1.17.87,1.39.13,1.12.4,1.22.29-.27.44-.27.35.51.45.63c0-.05,1.4,1.62.91,1.54s-.73-1-1.36-1.06,0,1.37.11,1.68a16.34,16.34,0,0,1,1.08,4.23c.14.68.65,1,.79,1.58.18.73-.37,1.42.35,2s.6,1.11.85,1.74c.34.85,1.38,1.09,2,1.78.43.53.92,1.47,1.73,1.31s.46.54.81,1.09c.92,1.45,2.23.8,3.24,1.94,1.42,1.61,2.17.26,3.25-.69a8.54,8.54,0,0,1,3.56-1.74c.9-.22,1-2.42.86-3.16a4,4,0,0,1,.08-1.65c.16-.42,1.32-1.34,1.79-1.2,1.07.3,1.39-.12,2.32-.37.66-.18,1.33-.07,2-.23.35-.09,1.47-.06,1.63-.4s.59-.38.32-.64a8.54,8.54,0,0,0-.88-.94c-1.56-1.24-.27-2.47.67-3.59a8.29,8.29,0,0,1,1.6-1.64c.25-.17-.77-.77-.24-1.42s.92-.93,1.62-.66a4,4,0,0,0,2.4.24c.49-.07,1.77-.21,2-.72.16-.3-.17-.39-.34-.54s-.21-.85-.21-1.19a6.48,6.48,0,0,0,0-2,3.67,3.67,0,0,1-.26-2.14,3.08,3.08,0,0,0-.18-2.27c-.29-.55-.84-1.34-.21-1.82.89-.68-.29-1-.16-1.68s.42-1.31.62-2a2.56,2.56,0,0,1,1.07-1.7c.2-.17,1.61-1.4,1.61-1.7,0-.51-1.1-1-1.09-1.39,0-.25,1.48-.7,1.75-1,.46-.45.63-1.36,1-1.91.55-.77.29-1.66.23-2.57a2.31,2.31,0,0,0-1.17-2c-.29-.16-1.18-.48-1-.95.36-1.14,2.31,1.68,1.64-.42a22.41,22.41,0,0,0-1.13-2.95c-.27-.57-1-1.46-.47-2.1s1.06-.72.9-1.58c-.25-1.4-1-2.6-1.29-4a3.89,3.89,0,0,1,1-3.67,5.14,5.14,0,0,0,.85-1.93c0-.32.86-.71,1.08-.85a3.83,3.83,0,0,1,1.47-.46c1.07-.19,1,.74,1.66,1.18.93.58,2-1.61,2.4-2.17s.41-1.05,1-1.2a17.53,17.53,0,0,0,.6-2.3c.21-.71,1.43-.36,1.82,0a1.85,1.85,0,0,0,2.23.33c.76-.28,1.52-.73,2.3-1a7.86,7.86,0,0,0,2.34-1.38c.46-.37.18-1.93.11-2.45s-.49-.69-.55-1.13c-.12-.81.59-.62,1.08-.93s.85-.5,1.26-.77.71-.82,1.17-1.07c.88-.45,1.87-.38,2.76-.93s2.3-1.46,2.36-2.6c.08-1.36.27-2.12,1.54-2.8a36.19,36.19,0,0,0,3.58-1.62c1.14-.8,1.67-2.31,2.54-3.36a6.91,6.91,0,0,1,1.31-1.44c.45-.3,1-.62.92-1.25-.12-1.3,1.24-1.29,1.62-2.48.26-.8,1.36-1.08,2-1.64.17-.16.54-.21.64-.31a4.55,4.55,0,0,0,.51-1.39c.36.1.56.45,1,.44s.68-.32,1-.41c.64-.15,1-.78,1.65-1,1.5-.63,3.52-1,4.61-2.29s3.08-2.3,2.6-4.3c-.1-.42.77-.94,1-1.22a3.28,3.28,0,0,0,.55-2.46c-.11-.93-.95-1.12-1.39-1.86s.55-1.53,1-1.94c.65-.64,1.85-.29,2.4-.95s1.65-.36,2.31-.48,1.21,0,1.34-.67.17-.75.93-1c.47-.16,0-1.6.54-1.6s.29,1.46.46,1.77c.08.15,1.56-.32,1.8-.32.88,0,1.13-.34,1.57-1.07s2.67,1.08,3.24-.32a3.62,3.62,0,0,0-.38-3.71,5,5,0,0,1-.48-1.63,2.74,2.74,0,0,0-.53-1.52c-.35-.64.13-1.33,0-2-.15-1-.39-1.15.21-2.07.44-.69-.26-1.5-.91-1.7s-.85.09-.78-1a1.9,1.9,0,0,0-.95-2,1.11,1.11,0,0,1-.24-1.9c.63-.7.54-1.11.49-2,0-.64.26-1.48,0-2.11-.44-1.24-2.7-.07-3.51-.75s-2.15-2.75-.55-2.95c.93-.12,1.14-.88,1.23-1.69s.39-.72,1-1.12c.8-.54,3.63.17,3.23-1.68-.2-1-.11-1.2-1.1-1.48-.79-.21-.29-1.23-1-1.53-.52-.21-1.49.65-1.84.07s-1-.85-1.37-1.42c-.24-.35-.67-.36-1-.49-.72-.26,0-1.33,0-1.68.07-1,1-1.1,1.5-1.84.39-.56.93,1,1.12,1.25.36.51,1.17,1.2,1.77.71.42-.34,0-1.23.43-1.43.67-.34,1.72.85,2.11,1.23s.86.48,1.4.8c.8.46,1.5,0,2.18-.54.92-.73.59.76.36,1.15-.46.8-.08,1.3.55,1.73a23.38,23.38,0,0,1-.61,2.3c-.12.85.52,1.12,1.24,1.35a11.31,11.31,0,0,0,2.11.49,6.6,6.6,0,0,1,2.17.37c1.3.45,1.83-.91,3-.59s1.45,0,2.5-.21c.86-.16,1.71.33,2.61.21s1.63.37,2.65-.11a2.21,2.21,0,0,1,2.63.24,3.66,3.66,0,0,0-.55.63c-.15.42.26.63.26,1s-.2.47-.33.76,0,.83-.13,1.21-.56.47-.88.51c-.85.12-.46,1.15-.51,1.73-1.5-.6-2.35,1.15-3.52,1.61-1.41.56-1.83,2.38-1.95,3.77-.17,1.85,1.62,3.13,1.35,4.82,0,.27-.2,2.33.51,2s.79.17,1.32-.63c-.57.85,1.36,1.61,2,1.24a4.51,4.51,0,0,0,1.27-.86c.24-.34,0-1,0-1.44a4.23,4.23,0,0,1,.17-1.91c.22-.41.59-.71.65-1.19a2.4,2.4,0,0,1,.17-1.13c.63-1.11.46,0,.9.29,1,.56.61.86.63,1.88,0,.73.76,1,1.07,1.56s-.17,1.57-.38,2c-.39.85.36,1.18.83,1.76.75.9.39,1.23.42,2.2,0,.41.38.58.38,1s-.17.79-.14,1.19c.06.62.61,1.26.68,2,.08.9-.25,1.34.46,2s1-.21,1.23-.69c0,0,1.4.71,1.62.75.9.15.81-1.13,1-1.62s.71-1,1-1.57c.44-1-.31-1.37-.22-2.16.18-1.51-.37-2.76-.62-4.22-.11-.64-.28-1.46.67-1.55s1.1-.64,1.37-1.63-.58-1.28-.52-2.08.78-1.09.57-2.1c-.16-.81-.63-1.8-.2-2.61.55-1.05,1.33.35,2,.31.32,0,.37-.37.65-.42s.74.18,1.1.21a1.77,1.77,0,0,0,1.81-.74c.26-.55-.17-1-.07-1.6a9.83,9.83,0,0,1,.53-2.31c.2-.36.67-.38.9-.71s.09-.83.19-1.24c.2-.82,1-1.29,1.09-2.16s.11-1.61.21-2.41c.06-.46-1.2-.72-1.27-1.33s1.21-1.55,1.61-1.91c.58-.55.68-1.38,1.12-2s.3-1.75.56-2.55a4.6,4.6,0,0,0-.29-3c-.19-.64-.8-1.7,0-2.22.53-.35,1.22-.12,1.76-.56a5,5,0,0,0,1.23-1.79,5.37,5.37,0,0,1,1.53-1.94c.62-.53.77-1.4,1.38-1.94s1.08-.39,1.62-.84.84,0,1.38-.27c1-.51,1.22-.73,1.86.15a2.27,2.27,0,0,0,1.85,1c1,.07,1,0,1-.89,0-1.2-1.87-1.64-2.19-3-.27-1.1.31-1,1-1.47a11.28,11.28,0,0,0,1.5-1.65c.64-.63.84-.9.35-1.66-.15-.21-.53-.33-.6-.59s.52-.79.33-1.13c-.08-.17-1.13-.26-1.39-.37a1.73,1.73,0,0,0-1.76,0c-.67.43-1.37-.64-2-.83s-1.59.53-2.17.7c-.93.28-.31-.68,0-1a9.2,9.2,0,0,0,1.4-1.65c.25-.44.45-1.09-.27-1.19s-.56-1-.63-1.54-1.34-.47-1.36.13c0,.37.17.45-.2.66s-.76.15-.72-.26c.1-.83.27-.85.95-1.52s.39-1.42-.42-1.51-.47,0-.9-.55c-.8-1-1.26-.72-2-.08a20.6,20.6,0,0,0-2,1.77c-.37.4-.46,1.64-1.05,1.72-1,.14-1.26-.17-2.1-.57-.61-.29-1.12.1-1.79-.28-.43-.26-1.4-.44-1.44-1-.08-1.05-.93.46-1.09.67-.47.61-1.16.8-1.74,1.26-.42.33-.29,1.19-.64,1.63a10,10,0,0,0-1.43,2c-.22.47-1.46.42-1.88.51s-.44.58-.77.53c-.6-.09-1.26-.41-1.84,0-.39.27-.62,1.21-.87,1.63s.37,1.06,0,1.35-1.22.2-1.72.45a3.72,3.72,0,0,0-1.14,1.06c-.28.42-1,.53-1,1s.65,1.08.28,1.45a6.32,6.32,0,0,1-1.31,1c-.34.2-.72-.31-1.11-.27a6.34,6.34,0,0,0-3.14,1.19c-.58.53-1.63-1.71-2.36-.77-.29.37.16,1.21,0,1.74s.38,1,.35,1.5,2.54.58,3,.7,1.19.54.85,1.17-.22,1.2-.26,2c-.08,1.34-1.75,0-2.37,1.12-.22.4-1.22.05-1.58.3-.76.51-1.27.31-2.14.33-1.61,0-2.74,1.43-4.36.27-1.13-.82-1.74-.7-2.91.14-.26.18-.58.55-.92.49s-1-.29-1.19.06.2,1.12-.68.76a1.34,1.34,0,0,1-.6-.61c-.32-.24-.89,0-1.22-.24-.17-.14,0-.33-.3-.53-.73-.53-1.6.89-1.76.82-.48-.2-1.08-1-1.6-1.32a3.6,3.6,0,0,1-1.16-1.4c-.28-.45.76-1.08.49-1.72-.13-.32-.42-.44-.7-.59s-.12-.55-.38-.74.72-1.51.69-1.89a2.93,2.93,0,0,0-.51-1.9c-.82-1.3-1.76-1.36-2.71-.25-.58.67-.63.5-1.46.55-.24,0-1.25.08-1.37.29a1.09,1.09,0,0,0,.1,1.42c.71.83.07,1-.32,1.68a5.49,5.49,0,0,0-.54,2.11c-.08.67-.51,1.16-.57,1.84s.77,1.69,1.16,2.29a4.56,4.56,0,0,1,.37,2.82c0,.08,0,1.44-.45,1a1.4,1.4,0,0,0-1.44-.1,9.67,9.67,0,0,1-3.42.44c-1,0-1.56-1-2.52-1.13-.62-.09-1,.52-1.49.74a2.76,2.76,0,0,1-2.24-.28c-.49-.29-.71-1.17-1.4-1.07-.37,0-.49.41-.89.36s-.7-.43-1.09-.56c-.68-.22-1,.54-1.66-.12-.46-.48-.46-1.15-1.22-1.32s-.92.64-1.54.69c-.82.08-1-.18-1.62-.73s-3.15-.7-3.25-1.36a4.54,4.54,0,0,0-.62-2.28c-.55-.85-1.1-.35-2-.44-.55-.06-.55-.74-.93-1a3.29,3.29,0,0,0-1.71-.23,7.39,7.39,0,0,0-2.16,1.07c.13-.09-1.21-.52-1.33-.51a1.32,1.32,0,0,0-1.1.48c-.08.14-.09.53-.23.63a5.31,5.31,0,0,0-1.37-.59,9.43,9.43,0,0,1-2-.11c-.44-.17,0-1-.17-1.33-.3-.76-1.43-.7-2.08-.51-.43.12-1,.8-1.38.14a4,4,0,0,0-1.8-1.21c-.67-.25-1.09-.53-1.81-.14-1.13.59-.94-.51-1.74-.82s-1.45-.19-1.62-1.08c-.06-.3-.06-.7-.32-.92-.41-.37-.56.1-.46.42-1.39-.5-1.46-2.24-3.08-2.4-1.4-.14-2.25-.22-3-1.5-.81-1.43-.76-.07-1.41.17-.42.16-2.33-1.22-2.63-1.5-.48-.47-.41-1,.2-1.14s.46-.67.52-1.24.6-.75.67-1.35-.41-1.24,0-1.92.7-.7.77-1.48a1.27,1.27,0,0,1,.39-.9,3.78,3.78,0,0,0,1-1.15c.35-.57,1.15-.4,1.46-1s1.82-2,.8-2.49c-.68-.34-.68-1-1.11-1.52-.58-.74-.85-.22-1.64-.3s-.51-.83-1.23-.46c-.56.29-.63-.59-.69-1-.16-.85-1-2.26-2.13-2.07-.6.11-.8-.58-1.35-.72a6.73,6.73,0,0,0-1.35-.16c-.85-.08-1.93-.24-2-1.29s-.46-2.34-1.66-2.64c-1-.24-1.64,1.69-1.54,1.72-.46-.15-.59-.56-.66-1s-.46-.48-.48-.81c-.07-.7,1.5-1,.6-1.88s-.11-1.74-.24-2.67c0-.34-.64-.64-.83-1-.34-.6-.12-.51.09-.91.1-.2-1.16-.34-1.18-.53-.07-.6,0-1.24,0-1.85s.15-1.6.93-1.17.61.84,1,1.81c.21.56,1,1.4,1.67,1.14,1.05-.41.49-.47.6-1.29.07-.51,1-.28,1.18-.79s1.33-.21,1.71-.42c1.06-.57,1.45-1.23.82-2.39s-2.44-1.48-1.49-3c.83-1.37-1.31-1.9-2.41-1.85s-1.1-.17-1-1.29a3.56,3.56,0,0,1,.23-1.21c.22-.46.79-.61,1-1,.06-.12-.36-.82-.39-.95-.16-.6-.61,0-1-.36s-.36-.59,0-1c.67-.85,1.39-.18,2.3.18.32.13,1.53.68,1.57-.08s.68-.7.89-1.28a17.64,17.64,0,0,0,.45-2c.08-.36,1.18-.52,1.43-.59.92-.24-.1-1.08.49-1.51s1.12,0,1.56-.36c.69-.58.46-.88.42-1.65s.45-1.37.55-2.05.84-1,1.08-1.54a4.43,4.43,0,0,0,0-2.17c-.23-.68-1.34-1-1.82-1.46-.89-.76-.85-1.15-2.15-1.21a3.69,3.69,0,0,1-2.11-.85c-.32-.32-.44-1.07-1-.78a12.43,12.43,0,0,1-2.21,1.2c-.41.1-2-.51-2.11-.21-.39,1.39-2.67.36-3.71,1-.6.35-.54,1.22-1.17,1.57a7.65,7.65,0,0,1-2.53.7.94.94,0,0,0-.71.38c-.17.19-.65,0-.85,0-.74,0-.57-.79-.77-1.36-.54-1.53-1.57-1.65-3-1.47-1.75.22-1.89-1-2.3-2.46-.18-.68-.4-.82-1.07-1.1s-.8-1.37-1.55-1.5a7.29,7.29,0,0,1-2.18-.64c-.8-.4-.53-1.09-1.1-1.56a6.91,6.91,0,0,1-2.13-2.34c-.36-.68-.37-.44-1-.77s0-1.05-.55-1.22c-.89-.29-.67.12-1.44.4-.45.15-1.05-.55-1.22,0s-1.11.17-1.3-.15-.66-.85-1.11-.36c-.27.3-.57.84-1.06.75-.77-.13-.67-.81-1.5-.23-.39.28-1.38.51-1.59.87-.38.67-1.22-.12-1.72-.17-.93-.09-.05,1.21-1,1.49-.57.17-.93-.19-1.44-.38-.89-.33-1.67.5-2.54.22-1.24-.39-.49,2-1.6,1.88a.74.74,0,0,0-.77.87c.27,1-.68.46-1.24,1s-.74.44-1.44.72c-.49.19-.16,1.6.06,1.92.57.85-.37,2.36,1.4,2.16a7.79,7.79,0,0,1,2.41,0,1.35,1.35,0,0,1,.6.51c.38.54.93.85,1.3,1.36.22.3.4.73.63,1,.75.85,1-.2,1.53-.38.1,0,.35,2.1.63,2.28a7.16,7.16,0,0,1,1,1c.34.34,1,.11,1.44.35s.19.82-.11,1c-.55.28-.51.49-.82.94-.55.78-1.9.2-2.35,1.2-.18.41-2.17,1.56-2.16,1.6,0,.4.38.62.31,1.14s-.28,1,0,1.45c.41.57.78.33.53,1.17-.19.65-.84.46-.66,1.26s.82.72.86,1.39a3.43,3.43,0,0,0,.56,2.28c-.44-.49-.58,1.7-.59,1.9,0,1-.9,1.93.05,2.86,1.3,1.26,3,.84,4.32,1.8.46.33.86,1.4,1.48,1.34.24,0,1.69-.18,1.87.07s-.31,1.12-.18,1.46a1.86,1.86,0,0,0,1.17,1,9.51,9.51,0,0,0,1.84.2C149.33,156.51,149.19,157.05,149.77,157Z" transform="translate(-65.19 -114.5)"/><polyline class="cls-3" points="159.81 257.34 159.81 182.94 185.09 182.94 185.09 258.18"/><polyline class="cls-3" points="210.37 258.18 210.37 162.71 235.65 162.71 235.65 259.45"/><path class="cls-3" d="M351.82,373.53V257.42s-26.54.84-26.12.84V373.53" transform="translate(-65.19 -114.5)"/><line class="cls-3" x1="185.62" y1="209.9" x2="209.58" y2="209.9"/><line class="cls-3" x1="237.34" y1="177.88" x2="259.56" y2="177.88"/><polyline class="cls-3" points="307.09 183.13 290.26 183.13 245.16 228.23 224.91 219.72 194.39 243.19 170.72 224.41 137.65 243.19"/><line class="cls-3" x1="298.54" y1="203.24" x2="298.54" y2="231.54"/><polyline class="cls-3" points="295.81 206.06 298.54 202.28 301.41 205.93"/><line class="cls-3" x1="13.43" y1="258.35" x2="381.16" y2="258.35"/><line class="cls-4" x1="60.86" y1="229.86" x2="60.86" y2="217.33"/><line class="cls-4" x1="54.6" y1="223.59" x2="67.12" y2="223.59"/><line class="cls-4" x1="261.39" y1="49.87" x2="269.64" y2="40.45"/><line class="cls-4" x1="260.8" y1="41.03" x2="270.22" y2="49.29"/><line class="cls-4" x1="264.84" y1="112.76" x2="266.96" y2="100.42"/><line class="cls-4" x1="259.73" y1="105.53" x2="272.07" y2="107.65"/><circle class="cls-4" cx="95.3" cy="282.65" r="4.17" transform="translate(-265.47 208.28) rotate(-79.1)"/><circle class="cls-4" cx="313.33" cy="152.5" r="4.17"/><circle class="cls-4" cx="105.09" cy="163.7" r="4.17" transform="translate(-153.52 69.98) rotate(-63.43)"/><circle class="cls-4" cx="256.83" cy="262.7" r="4.17" transform="translate(-123.04 337.79) rotate(-76.72)"/><path class="cls-4" d="M74,351.13A4.18,4.18,0,1,1,69.87,347,4.17,4.17,0,0,1,74,351.13Z" transform="translate(-65.19 -114.5)"/><path class="cls-4" d="M234,153.15l3.66-1.07-1.07,3.66a6.17,6.17,0,0,0,0,3.51l1.07,3.66L234,161.84a6.2,6.2,0,0,0-3.52,0l-3.65,1.07,1.07-3.66a6.35,6.35,0,0,0,0-3.51l-1.07-3.66,3.65,1.07A6.2,6.2,0,0,0,234,153.15Z" transform="translate(-65.19 -114.5)"/><path class="cls-4" d="M421.67,332.89l3.66-1.07-1.07,3.66a6.2,6.2,0,0,0,0,3.52l1.07,3.65-3.66-1.07a6.35,6.35,0,0,0-3.51,0l-3.66,1.07,1.07-3.65a6.2,6.2,0,0,0,0-3.52l-1.07-3.66,3.66,1.07A6.17,6.17,0,0,0,421.67,332.89Z" transform="translate(-65.19 -114.5)"/></g></g></g></g></svg>