<svg xmlns="http://www.w3.org/2000/svg" xmlns:xlink="http://www.w3.org/1999/xlink" viewBox="0 0 408.8 292.33"><defs><style>.cls-1,.cls-3,.cls-4,.cls-6{fill:none;}.cls-2{clip-path:url(#clip-path);}.cls-3,.cls-4{stroke:#ff151f;}.cls-3,.cls-6{stroke-linecap:round;stroke-linejoin:round;}.cls-4{stroke-miterlimit:10;}.cls-5{fill:#111015;}.cls-6{stroke:#514d57;}</style><clipPath id="clip-path" transform="translate(-44.41 -132.73)"><rect class="cls-1" width="500" height="500"/></clipPath></defs><title>Asset 7</title><g id="Layer_2" data-name="Layer 2"><g id="Layer_1-2" data-name="Layer 1"><g class="cls-2"><g class="cls-2"><path class="cls-3" d="M352.71,383.31c25.08-6.8,47.34-15.41,59.9-25.17V328.29s-16.17-10-18.25-18.25c0,0-5.38-32.34-19.48-39.8l-16.59,16.17,38.15-37.73s-23.64-22-49.76,1.66l1.66-2.91s-13.68-7.46-23.22-8.7" transform="translate(-44.41 -132.73)"/><path class="cls-3" d="M222.91,397.55a111.73,111.73,0,0,0,12.44,1.64c18.42,1.31,48.68-1.63,80.47-7.68" transform="translate(-44.41 -132.73)"/><path class="cls-3" d="M207.57,239.14s-64.68,16.17-70.49,71.32c-4.53,43.1,31.61,71.11,67.72,82.74" transform="translate(-44.41 -132.73)"/><polyline class="cls-3" points="199.15 267.7 199.24 291.83 162.72 291.83 159.37 249.83"/><line class="cls-3" x1="138.98" y1="291.31" x2="139.54" y2="266.79"/><polyline class="cls-3" points="307.81 248.01 310.63 291.83 274.11 291.83 270.76 249.83"/><line class="cls-3" x1="250.37" y1="291.31" x2="250.93" y2="266.79"/><circle class="cls-3" cx="324.76" cy="175.75" r="6"/><line class="cls-3" x1="192.54" y1="118.34" x2="255.89" y2="118.34"/><circle class="cls-4" cx="222.46" cy="46.56" r="20.46"/><line class="cls-3" x1="227.96" y1="0.5" x2="227.96" y2="15.11"/><line class="cls-3" x1="234.29" y1="13.17" x2="234.29" y2="24.78"/><path class="cls-3" d="M112.07,291.26s-2.74,23.87,24.06,23.09" transform="translate(-44.41 -132.73)"/><polyline class="cls-3" points="7.93 247.18 38.46 272.22 88.15 235.83 116.72 255.79"/><path class="cls-5" d="M57.83,380.11a6.46,6.46,0,1,1-6.46-6.46,6.46,6.46,0,0,1,6.46,6.46" transform="translate(-44.41 -132.73)"/><path class="cls-3" d="M57.83,380.11a6.46,6.46,0,1,1-6.46-6.46A6.46,6.46,0,0,1,57.83,380.11Z" transform="translate(-44.41 -132.73)"/><path class="cls-5" d="M89.91,405.15a6.46,6.46,0,1,1-6.45-6.45,6.46,6.46,0,0,1,6.45,6.45" transform="translate(-44.41 -132.73)"/><path class="cls-3" d="M89.91,405.15a6.46,6.46,0,1,1-6.45-6.45A6.46,6.46,0,0,1,89.91,405.15Z" transform="translate(-44.41 -132.73)"/><path class="cls-5" d="M138.43,369.54a6.46,6.46,0,1,1-6.45-6.45,6.46,6.46,0,0,1,6.45,6.45" transform="translate(-44.41 -132.73)"/><path class="cls-3" d="M138.43,369.54a6.46,6.46,0,1,1-6.45-6.45A6.46,6.46,0,0,1,138.43,369.54Z" transform="translate(-44.41 -132.73)"/><polyline class="cls-3" points="295.22 53.98 325.74 79.03 379.74 17.79 408.31 37.75"/><path class="cls-5" d="M345.11,186.91a6.46,6.46,0,1,1-6.46-6.45,6.46,6.46,0,0,1,6.46,6.45" transform="translate(-44.41 -132.73)"/><path class="cls-3" d="M345.11,186.91a6.46,6.46,0,1,1-6.46-6.45A6.46,6.46,0,0,1,345.11,186.91Z" transform="translate(-44.41 -132.73)"/><path class="cls-5" d="M377.2,212a6.46,6.46,0,1,1-6.46-6.46A6.46,6.46,0,0,1,377.2,212" transform="translate(-44.41 -132.73)"/><path class="cls-3" d="M377.2,212a6.46,6.46,0,1,1-6.46-6.46A6.46,6.46,0,0,1,377.2,212Z" transform="translate(-44.41 -132.73)"/><path class="cls-5" d="M430,151.5a6.46,6.46,0,1,1-6.45-6.46A6.46,6.46,0,0,1,430,151.5" transform="translate(-44.41 -132.73)"/><path class="cls-3" d="M430,151.5a6.46,6.46,0,1,1-6.45-6.46A6.46,6.46,0,0,1,430,151.5Z" transform="translate(-44.41 -132.73)"/><path class="cls-4" d="M291.86,239.05a24.64,24.64,0,1,0-46.15,12h43A24.5,24.5,0,0,0,291.86,239.05Z" transform="translate(-44.41 -132.73)"/><path class="cls-3" d="M133.71,304.42a8.07,8.07,0,1,1-8.07-8.07A8.07,8.07,0,0,1,133.71,304.42Z" transform="translate(-44.41 -132.73)"/><line class="cls-3" x1="41.27" y1="291.78" x2="383.07" y2="291.78"/><line class="cls-6" x1="96.9" y1="115.1" x2="96.9" y2="102.58"/><line class="cls-6" x1="90.64" y1="108.84" x2="103.16" y2="108.84"/><line class="cls-6" x1="282.17" y1="28.64" x2="290.42" y2="19.22"/><line class="cls-6" x1="281.58" y1="19.81" x2="291" y2="28.06"/><line class="cls-6" x1="376.02" y1="123.62" x2="378.14" y2="111.28"/><line class="cls-6" x1="370.91" y1="116.39" x2="383.25" y2="118.51"/><path class="cls-6" d="M93.17,329A4.17,4.17,0,1,1,89,324.78,4.17,4.17,0,0,1,93.17,329Z" transform="translate(-44.41 -132.73)"/><circle class="cls-6" cx="401.59" cy="174.57" r="4.17"/><circle class="cls-6" cx="176.39" cy="184.04" r="4.17" transform="translate(-117.31 104.6) rotate(-58.28)"/><circle class="cls-6" cx="379.3" cy="390.39" r="4.17" transform="translate(-81.04 -93.46) rotate(-5.65)"/><circle class="cls-6" cx="81.59" cy="274.49" r="4.17"/><path class="cls-6" d="M220,193.06l3.66-1.07-1.07,3.66a6.2,6.2,0,0,0,0,3.52l1.07,3.66L220,201.76a6.2,6.2,0,0,0-3.52,0l-3.65,1.07,1.07-3.66a6.38,6.38,0,0,0,0-3.52L212.78,192l3.65,1.07A6.2,6.2,0,0,0,220,193.06Z" transform="translate(-44.41 -132.73)"/><path class="cls-6" d="M431.65,376.59l3.65-1.08-1.07,3.66a6.38,6.38,0,0,0,0,3.52l1.07,3.66-3.65-1.07a6.2,6.2,0,0,0-3.52,0l-3.66,1.07,1.07-3.66a6.2,6.2,0,0,0,0-3.52l-1.07-3.66,3.66,1.08A6.38,6.38,0,0,0,431.65,376.59Z" transform="translate(-44.41 -132.73)"/></g></g></g></g></svg>