<svg xmlns="http://www.w3.org/2000/svg" xmlns:xlink="http://www.w3.org/1999/xlink" viewBox="0 0 342.8 328.44"><defs><style>.cls-1,.cls-3,.cls-4,.cls-5{fill:none;}.cls-2{clip-path:url(#clip-path);}.cls-3,.cls-4{stroke:#ff151f;}.cls-3,.cls-5{stroke-linecap:round;stroke-linejoin:round;}.cls-4{stroke-miterlimit:10;}.cls-5{stroke:#514d57;}</style><clipPath id="clip-path" transform="translate(-96.14 -77.79)"><rect class="cls-1" width="500" height="500"/></clipPath></defs><title>Asset 8</title><g id="Layer_2" data-name="Layer 2"><g id="Layer_1-2" data-name="Layer 1"><g class="cls-2"><g class="cls-2"><path class="cls-3" d="M335.73,291.8v14.41l19,10.32s5.29,4.33,3.84,13.69l-12.72,49.47L299.23,390.5l-.48-1.44s-15.13,6.49-18,.24,3.37-7.68,3.37-7.68" transform="translate(-96.14 -77.79)"/><polyline class="cls-3" points="242.47 255.08 234.06 288.7 202.6 296.14"/><polyline class="cls-3" points="229.74 231.06 220.85 226.26 204.76 233.94"/><path class="cls-3" d="M339.65,282.7a4,4,0,0,1,4.48,3.84c.49,4.32-3.84,5.26-8.4,4.54" transform="translate(-96.14 -77.79)"/><path class="cls-3" d="M343.41,276.19s3.85-14.89-12.72-18-16.57,13-16.57,13L312,290.84s2.17,5.76,7.45,5.52" transform="translate(-96.14 -77.79)"/><polyline class="cls-4" points="228.78 239.23 227.1 278.37 221.33 284.62 214.85 278.37 221.81 238.03"/><path class="cls-3" d="M267.42,291.21c.55-.44,0-1.68-.11-2.31s-.58-.83-.66-1.36c-.14-1,.72-.75,1.31-1.13s1-.6,1.52-.93.86-1,1.41-1.29c1.07-.55,2.27-.47,3.34-1.13s2.78-1.77,2.86-3.14c.09-1.65-.7-2.43.83-3.26" transform="translate(-96.14 -77.79)"/><path class="cls-3" d="M291,264.26c.3-1,1.63-1.3,2.37-2,.2-.19.66-.25.78-.37a5.78,5.78,0,0,0,.62-1.68c.43.13.67.55,1.19.54s.82-.4,1.26-.5c.77-.19,1.26-.95,2-1.26,1.81-.76,4.25-1.2,5.57-2.77s3.72-2.78,3.14-5.2c-.12-.51.94-1.13,1.23-1.48a4,4,0,0,0,.68-3c-.14-1.13-1.16-1.35-1.69-2.25s.66-1.85,1.16-2.35c.79-.77,2.24-.34,2.91-1.14.53-.63,2-.44,2.78-.58s1.47,0,1.63-.81.2-.91,1.13-1.22c.56-.19,0-1.94.64-1.94s.35,1.77.56,2.14c.1.19,1.88-.39,2.18-.39,1.06,0,1.37-.4,1.9-1.29s3.22,1.31,3.91-.39a4.38,4.38,0,0,0-.45-4.48,5.56,5.56,0,0,1-.59-2,3.33,3.33,0,0,0-.64-1.84c-.42-.78.15-1.61,0-2.43-.19-1.26-.47-1.39.25-2.5.53-.83-.31-1.82-1.1-2.06s-1,.11-.94-1.17a2.29,2.29,0,0,0-1.15-2.37,1.34,1.34,0,0,1-.29-2.3c.76-.85.65-1.34.59-2.38-.05-.78.31-1.79,0-2.56-.54-1.5-3.27-.08-4.25-.9-.82-.69-2.59-3.32-.66-3.57,1.12-.14,1.38-1.06,1.48-2.05s.47-.85,1.21-1.35c1-.65,4.39.21,3.91-2-.24-1.18-.13-1.45-1.33-1.78-.95-.26-.35-1.5-1.24-1.85-.64-.26-1.81.78-2.23.08s-1.19-1-1.66-1.72c-.29-.42-.81-.43-1.26-.6-.86-.31,0-1.6.06-2,.08-1.24,1.19-1.34,1.81-2.23.47-.67,1.12,1.19,1.35,1.52.44.61,1.42,1.44,2.14.85.5-.41,0-1.48.52-1.73.81-.41,2.08,1,2.55,1.49a6.11,6.11,0,0,0,1.69,1c1,.57,1.82,0,2.64-.64,1.11-.89.71.92.44,1.38-.56,1-.1,1.57.66,2.09.13.09-.66,2.31-.73,2.79-.16,1,.63,1.36,1.49,1.63a13.63,13.63,0,0,0,2.55.59,8.31,8.31,0,0,1,2.63.45c1.56.54,2.21-1.1,3.61-.71s1.75,0,3-.26c1-.19,2.06.41,3.15.25,1.24-.17,2,.45,3.2-.13a2.71,2.71,0,0,1,3.18.29,5.44,5.44,0,0,0-.67.77c-.17.5.33.75.32,1.22s-.24.57-.39.92,0,1-.16,1.47-.68.56-1.06.61c-1,.14-.56,1.39-.63,2.09-1.8-.73-2.83,1.39-4.25,1.95-1.71.68-2.21,2.88-2.36,4.56-.2,2.23,2,3.78,1.63,5.82-.05.33-.24,2.82.62,2.4s.95.22,1.59-.76c-.68,1,1.65,1.95,2.41,1.51a5.79,5.79,0,0,0,1.54-1c.29-.41,0-1.26,0-1.75a5.09,5.09,0,0,1,.21-2.3c.27-.49.71-.86.78-1.45a3.16,3.16,0,0,1,.21-1.36c.76-1.34.56,0,1.09.35,1.17.68.73,1,.77,2.28,0,.88.9,1.17,1.29,1.88s-.21,1.9-.46,2.45c-.48,1,.42,1.44,1,2.14.91,1.08.47,1.47.5,2.66,0,.49.47.7.47,1.2s-.21,1-.17,1.44c.06.75.74,1.53.82,2.41.09,1.08-.31,1.62.55,2.42s1.16-.26,1.49-.84c0,0,1.7.86,2,.91,1.09.18,1-1.37,1.2-2s.86-1.23,1.16-1.88c.52-1.17-.37-1.67-.26-2.62.21-1.82-.46-3.34-.76-5.1-.14-.78-.33-1.76.81-1.88,1.31-.12,1.33-.77,1.66-2s-.7-1.54-.63-2.52.94-1.31.7-2.54c-.2-1-.77-2.16-.25-3.14.66-1.28,1.61.41,2.37.37.38,0,.45-.45.78-.51s.9.22,1.34.25a2.15,2.15,0,0,0,2.18-.89c.32-.67-.2-1.26-.08-1.94a11.69,11.69,0,0,1,.64-2.79c.24-.43.81-.46,1.08-.86s.12-1,.24-1.5c.23-1,1.16-1.56,1.32-2.61s.12-2,.24-2.91c.08-.56-1.44-.88-1.52-1.61s1.46-1.87,1.93-2.31c.71-.66.84-1.67,1.37-2.46s.36-2.11.67-3.07a5.57,5.57,0,0,0-.34-3.63c-.25-.78-1-2.06,0-2.69.64-.42,1.47-.14,2.13-.68a6.06,6.06,0,0,0,1.49-2.17,6.36,6.36,0,0,1,1.85-2.33c.75-.65.93-1.7,1.67-2.35s1.3-.47,1.95-1,1,0,1.67-.32c1.19-.62,1.48-.89,2.26.17a2.71,2.71,0,0,0,2.23,1.25c1.15.09,1.18,0,1.22-1.08.06-1.45-2.26-2-2.65-3.57-.32-1.33.37-1.22,1.23-1.78a14.46,14.46,0,0,0,1.81-2c.76-.76,1-1.08.41-2-.17-.26-.64-.4-.72-.71s.63-1,.41-1.37c-.11-.2-1.37-.31-1.69-.45a2.07,2.07,0,0,0-2.12,0c-.82.53-1.66-.77-2.39-1s-1.93.64-2.64.85c-1.12.33-.37-.82,0-1.16a10.79,10.79,0,0,0,1.69-2c.3-.52.55-1.32-.32-1.43s-.68-1.19-.76-1.86-1.63-.58-1.65.15c0,.45.21.55-.25.8-.26.15-.92.18-.86-.32.12-1,.33-1,1.14-1.83s.48-1.72-.5-1.83-.57,0-1.09-.67c-1-1.23-1.52-.87-2.48-.09a25.29,25.29,0,0,0-2.37,2.14c-.45.49-.56,2-1.27,2.08-1.22.16-1.52-.2-2.54-.69-.74-.35-1.35.12-2.16-.34-.53-.31-1.7-.53-1.75-1.22-.09-1.27-1.12.56-1.31.81-.57.73-1.41,1-2.11,1.52-.51.4-.34,1.44-.76,2a12.55,12.55,0,0,0-1.74,2.45c-.27.56-1.76.51-2.27.61s-.54.7-.93.64c-.73-.1-1.53-.49-2.23,0-.47.34-.75,1.47-1.05,2s.45,1.29-.05,1.64-1.47.24-2.08.54a4.56,4.56,0,0,0-1.38,1.28c-.34.5-1.16.65-1.24,1.25s.79,1.3.33,1.76a8,8,0,0,1-1.57,1.2c-.42.25-.87-.38-1.35-.33a7.74,7.74,0,0,0-3.79,1.44c-.71.65-2-2.06-2.86-.93-.35.45.19,1.47,0,2.11s.46,1.17.42,1.81,3.08.7,3.63.84,1.44.66,1,1.42c-.5.94-.27,1.46-.32,2.46-.09,1.63-2.11,0-2.87,1.37-.25.47-1.46.05-1.91.35-.91.63-1.53.38-2.58.41-1.95,0-3.32,1.73-5.27.32-1.36-1-2.1-.84-3.52.17-.31.22-.7.66-1.11.59s-1.17-.34-1.44.08.24,1.35-.82.91a1.69,1.69,0,0,1-.73-.73c-.39-.29-1.08,0-1.48-.3-.2-.16,0-.4-.36-.64-.88-.63-1.94,1.08-2.13,1-.58-.25-1.31-1.24-1.93-1.6a4.3,4.3,0,0,1-1.41-1.69c-.33-.55.93-1.31.6-2.08a1.55,1.55,0,0,0-.85-.72c-.35-.19-.14-.66-.46-.9s.87-1.82.84-2.27a3.54,3.54,0,0,0-.62-2.3c-1-1.58-2.13-1.64-3.28-.31-.7.81-.76.61-1.77.67-.28,0-1.5.09-1.65.35a1.32,1.32,0,0,0,.13,1.72c.85,1,.08,1.18-.39,2a6.25,6.25,0,0,0-.65,2.55c-.11.81-.62,1.4-.7,2.22s.93,2,1.4,2.78a5.44,5.44,0,0,1,.45,3.4c0,.1,0,1.74-.54,1.25a1.68,1.68,0,0,0-1.74-.12,12.06,12.06,0,0,1-4.14.53c-1.17-.05-1.89-1.19-3-1.36-.75-.11-1.17.63-1.81.89a3.36,3.36,0,0,1-2.71-.34c-.59-.35-.85-1.41-1.68-1.3-.46.06-.6.51-1.09.44s-.84-.52-1.31-.68c-.83-.26-1.27.66-2-.14-.55-.59-.56-1.39-1.48-1.59s-1.11.76-1.85.83c-1,.1-1.21-.23-2-.89s-3.81-.84-3.93-1.63a5.49,5.49,0,0,0-.75-2.77c-.67-1-1.34-.42-2.44-.53-.67-.07-.67-.9-1.12-1.21a3.86,3.86,0,0,0-2.08-.27,8.6,8.6,0,0,0-2.61,1.29c.16-.11-1.46-.63-1.6-.62a1.62,1.62,0,0,0-1.34.58c-.09.17-.11.65-.28.76a6.08,6.08,0,0,0-1.65-.71,11.5,11.5,0,0,1-2.44-.13c-.53-.2,0-1.21-.2-1.61-.36-.92-1.73-.84-2.51-.62-.52.15-1.2,1-1.67.18a4.71,4.71,0,0,0-2.18-1.47c-.81-.3-1.32-.64-2.19-.18-1.36.73-1.14-.61-2.1-1s-1.75-.22-2-1.3c-.07-.36-.08-.85-.38-1.11-.51-.44-.68.12-.56.51-1.69-.61-1.77-2.71-3.72-2.9-1.69-.17-2.72-.27-3.59-1.82-1-1.72-.91-.08-1.7.21-.5.19-2.81-1.48-3.18-1.82-.58-.56-.49-1.15.24-1.37.89-.27.55-.82.64-1.5s.72-.91.8-1.63-.5-1.5,0-2.32.85-.85.94-1.8a1.52,1.52,0,0,1,.47-1.09,4.64,4.64,0,0,0,1.16-1.38c.42-.69,1.38-.5,1.77-1.28s2.2-2.39,1-3c-.82-.41-.83-1.19-1.34-1.84-.71-.89-1-.26-2-.35s-.62-1-1.49-.56c-.68.35-.76-.72-.84-1.17-.19-1-1.27-2.74-2.57-2.5-.72.13-1-.71-1.63-.88a10,10,0,0,0-1.63-.2c-1-.08-2.34-.28-2.47-1.55s-.55-2.83-2-3.2c-1.16-.29-2,2.05-1.86,2.09-.56-.19-.71-.68-.8-1.2s-.55-.58-.58-1c-.08-.85,1.81-1.26.73-2.28s-.14-2.1-.3-3.22c-.05-.42-.77-.78-1-1.16-.42-.73-.15-.62.1-1.1.13-.25-1.4-.42-1.42-.65-.09-.72,0-1.5,0-2.23s.17-1.93,1.13-1.42.72,1,1.17,2.19c.27.68,1.2,1.69,2,1.38,1.28-.49.6-.57.73-1.56.08-.62,1.24-.33,1.43-1s1.6-.25,2.06-.5c1.28-.7,1.76-1.48,1-2.89s-2.95-1.79-1.81-3.69c1-1.66-1.58-2.3-2.91-2.24s-1.33-.2-1.19-1.56a4.33,4.33,0,0,1,.27-1.46c.27-.56,1-.74,1.23-1.25.08-.16-.43-1-.47-1.16-.19-.73-.73,0-1.19-.43s-.43-.72,0-1.24c.82-1,1.69-.22,2.78.21.39.16,1.86.83,1.9-.1,0-.75.82-.84,1.08-1.55a20.12,20.12,0,0,0,.54-2.42c.1-.44,1.43-.64,1.73-.72,1.11-.29-.12-1.31.59-1.82s1.36,0,1.89-.44c.83-.7.56-1.07.51-2s.55-1.66.66-2.48,1-1.18,1.31-1.86a5.44,5.44,0,0,0,0-2.63c-.28-.82-1.61-1.25-2.2-1.76-1.08-.93-1-1.4-2.6-1.47a4.45,4.45,0,0,1-2.56-1c-.37-.39-.53-1.3-1.23-1a13.76,13.76,0,0,1-2.67,1.45c-.49.12-2.45-.62-2.55-.25-.46,1.68-3.23.44-4.49,1.18-.72.43-.65,1.48-1.41,1.9a9,9,0,0,1-3.05.85,1.13,1.13,0,0,0-.87.46c-.2.23-.78,0-1,0-.9,0-.69-.94-.94-1.63-.65-1.86-1.89-2-3.66-1.78-2.11.26-2.29-1.18-2.78-3-.22-.82-.48-1-1.29-1.33s-1-1.65-1.88-1.82a8.73,8.73,0,0,1-2.63-.77c-1-.48-.64-1.32-1.34-1.89a8.29,8.29,0,0,1-2.57-2.83c-.43-.81-.45-.53-1.18-.92s0-1.27-.67-1.48c-1.08-.35-.8.15-1.74.48-.55.19-1.26-.67-1.47,0s-1.34.21-1.58-.18c-.33-.56-.79-1-1.34-.44-.33.36-.69,1-1.28.91-.93-.16-.8-1-1.81-.28-.48.34-1.68.62-1.93,1.06-.46.8-1.47-.16-2.07-.22-1.13-.1-.07,1.47-1.21,1.81-.7.2-1.14-.24-1.74-.46-1.08-.4-2,.6-3.08.26-1.5-.47-.59,2.38-1.94,2.28a.89.89,0,0,0-.93,1c.33,1.26-.82.55-1.5,1.23s-.89.53-1.73.87c-.6.24-.19,1.94.07,2.32.69,1-.45,2.86,1.69,2.62a9.16,9.16,0,0,1,2.91,0,1.5,1.5,0,0,1,.73.61c.46.66,1.12,1,1.57,1.65.27.36.48.88.77,1.21.91,1,1.17-.24,1.84-.46.13,0,.43,2.54.76,2.75A8.69,8.69,0,0,1,187.85,99c.41.41,1.27.13,1.74.42s.23,1-.13,1.17c-.66.34-.61.6-1,1.14-.67.94-2.29.25-2.84,1.45-.22.49-2.63,1.88-2.62,1.94.07.47.46.74.38,1.38s-.34,1.24,0,1.75c.49.68.94.4.64,1.42-.23.78-1,.55-.8,1.51s1,.87,1,1.69c.07,1,0,2,.67,2.75-.53-.59-.71,2.06-.72,2.3,0,1.24-1.08,2.34.06,3.45,1.58,1.54,3.6,1,5.23,2.19.55.39,1,1.68,1.79,1.61.29,0,2-.21,2.26.09s-.38,1.35-.22,1.77a2.27,2.27,0,0,0,1.42,1.19,11,11,0,0,0,2.22.24c.6,0,.44.66,1.14.61,1.72-.15,1.84,2.55.09,2.66-.5,0-1.55-.42-1.94-.18-.79.51-1.1,1.39-2.1,1.61-1.24.27-1.24.77-2,1.69s-.78.9-.05,1.9a5.56,5.56,0,0,1,.62,2.45c0,1-1.47,1.2-.9,2.53.44,1,.19.59-.7,1s-.89,1.65-1.36,2.39c-.94,1.47-3.08,2.17-3.52,4-.18.7.56,2-.14,2.52a7.09,7.09,0,0,1-2.26,1.26c-.77.24-1.79.18-2.39.81-.91,1-.76,2.57-1.19,3.76a7.91,7.91,0,0,1-1.58,2.42c-.73,1-1.15,2.13-2,3-.39.45-1.2,1.76-1.71,2-.86.4-2.14-.71-2.84.38a9.43,9.43,0,0,1-1.66,2.24c-.8.76-.66,1.91-1.26,2.77s-1.55,1-2.29,1.55-.49,1.51-.91,2.32c-.58,1.15-3.68.29-4.77.49-.92.16-2.35.09-3.16.57-.49.28-1.76,1.4-2.1.76a3.34,3.34,0,0,1-.25-2.44c.11-.72.42-1.39-.56-1.33A7.58,7.58,0,0,0,149,175.5c-1,1.24-1.25,2.3-2.68,3.13a9.74,9.74,0,0,0-3.26,2.33c-1.12,1.51-.69,6.28,1.63,6.58,1.23.17,2,1.11,3.35,1,1.5-.1.62,1.43.13,2.29-.64,1.14-1.2,2.16-.74,3.48A10,10,0,0,0,149.6,198c.67.68,1.48.55,2.36.42,1.83-.28.42,1,.74,2.19.77,2.8,4.18,7.21,2.41,10.13-.36.61-.72.35-.88,1.22-.11.62-.61,0-1,.11.08,0-.08-2.47-1-2.42-1.31.06-2.36,1-3.64,1.13-.47.06-1.26-.27-1.59.17a2.4,2.4,0,0,0-.29,1.64,11.73,11.73,0,0,1-2.51-.4c-.88-.36-1.19-1.47-2.09-1.81s-1.48.52-2.28.77-2.59-.58-3.53-.8c-.71-.16-1.58-.7-2.32-.42a2,2,0,0,0-.84,2.16c.21.66-.09,1.76-1,1.43-.41-.15-.81,0-1.23-.05s-.83-.65-1.38-.77c-2-.45-1.65,2.73-1.95,3.61-.23.7-1.5,1.1-.51,1.94.26.22.65.75,1,.82s.59-.34.87,0c.84,1,2.15,1.75,2.48,3.07.36,1.5,2.13,2.86,3.42,3.58a27.74,27.74,0,0,0,5,2.42,10.42,10.42,0,0,0,2.79.13c1.3.06.14-1.69,1.6-1.15a2.84,2.84,0,0,0,2.71-.29c.49-.45,1-.84,1.72-.34.28.2-1.41,1.61-1.53,1.72-.92.78-1.85.29-2.82.85-.76.45-1.83.52-2.48,1-.87.67-1.55-.36-2.37.12-.37.22-1.51,1-1.82.41-.43-.81-.42-1.43-1.52-1.46a2.48,2.48,0,0,0-2.44,2.88c.2,2,2.33,3.71,3.6,5.07,1.41,1.52,2.82,2.89,4.12,4.5s2.28,3.68,3.88,5.23c.77.75,1.87.92,2.31,1.94s1.68,1,2.68,1.41,1.5,1.5,2.57.8c.32-.21.77-.75,1.21-.7a2.93,2.93,0,0,0,1.71,0c.81-.28,2.21-.27,2.85-.83a4.22,4.22,0,0,1,2.63-1.19,2.24,2.24,0,0,0,1.83-1.05c.57-.77,2.09-.27,2.65-1.31.25-.45.29-1,.57-1.41.38-.63,1-.95,1.42-1.52.67-1,0-1.83-.46-2.66-.17-.33.22-.46.41-.6.5-.39.16-.95,0-1.42a2.31,2.31,0,0,1,.89-3c-.27.14-.16,1.65-.16,1.91,0,1.39.63.67,1.51.86.28.06-1.33,1.28-1.33,1.57,0,1.44,1,1.45,1.94,1.59-.41-.07-.66.88-.65,1.19,0,.67,0,.56-.45.9a1.75,1.75,0,0,0-.64,1.87c.15,1,.8,1,1.2,1.73.27.5-.43.81.17,1.46.78.83.43,1.46.83,2.41a3.29,3.29,0,0,1,.4,1.53c0,1-1.44,1.36-1.58,2.38-.18,1.25-.09,2.7-.89,3.79-1.18,1.64,1.13,2.43.54,3.83-.4,1,.19,1.1.41,1.93s-.2,1.6-.17,2.33c0,.94.53,1.75.59,2.61.07,1.17-.73,1.27.15,2.34.46.56-.25,1.06-.37,1.59s.7,1.3,1.16,1.56c.69.38-.18,1.21.19,1.86s1,.6,1.11,1.37c.16,1.28,1,2.22,1.05,3.64,0,.27-.45,1.57-.28,1.7.94.75.49.75.75,1.87a3,3,0,0,1,.41.38c.08.42-.22,1.06-.2,1.51,0,1,.25,1.92.33,2.89a13.65,13.65,0,0,0,1.31,5.82c.39.77.42,1.65.81,2.43.17.33.72,2,1,2.06.52.13.59,1.11.71,1.58s.08.94.47,1.12.85,0,1,.21c-.19-.22-1.92.7-.32,1.65,1.05.63.84,2.16,1.59,3.08.36.44.9.13,1,.77,0,.23-.13,1.2.13,1.32s1.43.1,1.44.67-.35.87.06,1.41A6.33,6.33,0,0,1,185.4,315a4.93,4.93,0,0,0-.3.66,2.64,2.64,0,0,0,.59,1.32,14.51,14.51,0,0,1,.91,2.25,4,4,0,0,1,.7,2,17.7,17.7,0,0,0,.13,2.72c.12,1,0,2.11.27,3.08.11.53.78.68,1,1.17.25.69-.28,1.44.47,1.84.33.18.54,1,.63,1.34a33.25,33.25,0,0,0,1.34,3.86,4.53,4.53,0,0,0,1,1.5c.45.43,1.3.27,1.6.74a22.07,22.07,0,0,0,2.38,2.88c.41.44.33,1.3.62,1.84a8.48,8.48,0,0,0,1.08,1.77c.52.64.19,1.45.72,2a3.26,3.26,0,0,1,.67,2.08c.06.63.57.88.66,1.47s-.15,1.46.16,2,.52,1.42,1.05,1.67.16,1.36.49,1.48.34-.32.53-.32.42.61.55.76c-.06-.06,1.68,2,1.09,1.86s-.88-1.26-1.64-1.28-.06,1.66.13,2a19.49,19.49,0,0,1,1.31,5.11c.16.81.78,1.21.95,1.9.22.89-.44,1.72.43,2.41.7.54.71,1.34,1,2.1.41,1,1.68,1.32,2.36,2.16.52.64,1.11,1.77,2.09,1.58s.56.66,1,1.32c1.1,1.75,2.69,1,3.91,2.34,1.72,1.95,2.62.32,3.93-.83a10.24,10.24,0,0,1,4.3-2.1c1.09-.27,1.17-2.93,1.05-3.82a4.81,4.81,0,0,1,.09-2c.2-.51,1.6-1.62,2.16-1.45,1.29.37,1.68-.15,2.81-.45.8-.21,1.61-.08,2.4-.27.43-.11,1.79-.08,2-.49.12-.25.71-.46.39-.77a12.6,12.6,0,0,0-1.07-1.14c-1.88-1.5-.33-3,.8-4.34a10.12,10.12,0,0,1,1.94-2c.31-.21-.92-.93-.28-1.72s1.1-1.13,2-.8a4.72,4.72,0,0,0,2.9.29c.59-.08,2.13-.25,2.45-.86.19-.37-.2-.48-.41-.66s-.25-1-.26-1.43a8.08,8.08,0,0,0,0-2.46,4.39,4.39,0,0,1-.32-2.58,3.67,3.67,0,0,0-.22-2.74c-.34-.67-1-1.62-.26-2.2,1.08-.82-.34-1.23-.18-2s.5-1.58.75-2.36a3.06,3.06,0,0,1,1.28-2.06c.25-.2,2-1.7,2-2.06,0-.62-1.33-1.14-1.32-1.68,0-.3,1.8-.84,2.12-1.16.56-.54.77-1.65,1.23-2.31.66-.93.35-2,.27-3.11a2.76,2.76,0,0,0-1.42-2.42c-.34-.2-1.42-.59-1.24-1.15" transform="translate(-96.14 -77.79)"/><path class="cls-3" d="M260.6,245a32.81,32.81,0,0,0-32.8,32.8c0,18.12,32.16,67.09,32.8,67.73s32.8-49.61,32.8-67.73A32.8,32.8,0,0,0,260.6,245Zm1.49,47.28a16,16,0,1,1,16-16A16,16,0,0,1,262.09,292.28Z" transform="translate(-96.14 -77.79)"/><line class="cls-3" x1="0.5" y1="327.94" x2="342.3" y2="327.94"/><line class="cls-5" x1="23.78" y1="112.66" x2="23.78" y2="100.14"/><line class="cls-5" x1="17.52" y1="106.4" x2="30.04" y2="106.4"/><line class="cls-5" x1="241.39" y1="64.8" x2="249.64" y2="55.38"/><line class="cls-5" x1="240.81" y1="55.97" x2="250.23" y2="64.22"/><line class="cls-5" x1="279.94" y1="180.66" x2="282.06" y2="168.31"/><line class="cls-5" x1="274.83" y1="173.42" x2="287.17" y2="175.54"/><path class="cls-5" d="M162.57,295a4.18,4.18,0,1,1-4.18-4.17A4.18,4.18,0,0,1,162.57,295Z" transform="translate(-96.14 -77.79)"/><circle class="cls-5" cx="288.29" cy="215.95" r="4.17"/><circle class="cls-5" cx="282.48" cy="115.17" r="4.17" transform="translate(-118.72 39.08) rotate(-22.5)"/><circle class="cls-5" cx="167" cy="141.78" r="4.17" transform="translate(-137.55 131.51) rotate(-58.28)"/><circle class="cls-5" cx="374.3" cy="375.52" r="4.17" transform="translate(-131.33 -39.08) rotate(-5.65)"/><circle class="cls-5" cx="171.91" cy="349.83" r="4.17" transform="translate(-304.2 358.98) rotate(-76.72)"/><path class="cls-5" d="M284.56,155l3.66-1.07-1.07,3.65a6.2,6.2,0,0,0,0,3.52l1.07,3.66-3.66-1.07a6.2,6.2,0,0,0-3.52,0l-3.66,1.07,1.08-3.66a6.38,6.38,0,0,0,0-3.52l-1.08-3.65L281,155A6.38,6.38,0,0,0,284.56,155Z" transform="translate(-96.14 -77.79)"/><path class="cls-5" d="M402.48,337.61l3.66-1.07-1.08,3.66a6.38,6.38,0,0,0,0,3.52l1.08,3.66-3.66-1.08a6.38,6.38,0,0,0-3.52,0l-3.66,1.08,1.07-3.66a6.2,6.2,0,0,0,0-3.52l-1.07-3.66,3.66,1.07A6.2,6.2,0,0,0,402.48,337.61Z" transform="translate(-96.14 -77.79)"/><path class="cls-5" d="M126.34,331.35l3.66-1.07-1.07,3.66a6.2,6.2,0,0,0,0,3.52l1.07,3.66L126.34,340a6.35,6.35,0,0,0-3.51,0l-3.66,1.08,1.07-3.66a6.2,6.2,0,0,0,0-3.52l-1.07-3.66,3.66,1.07A6.17,6.17,0,0,0,126.34,331.35Z" transform="translate(-96.14 -77.79)"/></g></g></g></g></svg>