<svg xmlns="http://www.w3.org/2000/svg" xmlns:xlink="http://www.w3.org/1999/xlink" viewBox="0 0 434.44 233.97"><defs><style>.cls-1,.cls-3,.cls-4,.cls-5{fill:none;}.cls-2{clip-path:url(#clip-path);}.cls-3,.cls-4{stroke:#ff151f;}.cls-3,.cls-5{stroke-linecap:round;stroke-linejoin:round;}.cls-4{stroke-miterlimit:10;}.cls-5{stroke:#514d57;}.cls-6{fill:#111015;}</style><clipPath id="clip-path" transform="translate(-35.95 -140.4)"><rect class="cls-1" width="500" height="500"/></clipPath></defs><title>Asset 9</title><g id="Layer_2" data-name="Layer 2"><g id="Layer_1-2" data-name="Layer 1"><g class="cls-2"><polyline class="cls-3" points="176.5 202.69 211.81 81.81 226.72 132.45"/><g class="cls-2"><path class="cls-4" d="M259.49,210.25a11.61,11.61,0,1,1-11.6-11.61A11.6,11.6,0,0,1,259.49,210.25Z" transform="translate(-35.95 -140.4)"/><path class="cls-3" d="M268.36,187.28a32.25,32.25,0,0,1-.71,48.36" transform="translate(-35.95 -140.4)"/><path class="cls-3" d="M227.75,187.28a32.23,32.23,0,0,0,.71,48.36" transform="translate(-35.95 -140.4)"/><path class="cls-3" d="M213.38,170.35a54.84,54.84,0,0,0,1.21,82.22" transform="translate(-35.95 -140.4)"/><path class="cls-3" d="M284.88,170.35a54.82,54.82,0,0,1-1.21,82.22" transform="translate(-35.95 -140.4)"/><line class="cls-3" x1="198.94" y1="128.09" x2="225.49" y2="128.09"/><line class="cls-3" x1="190.62" y1="155.62" x2="224.06" y2="155.41"/><line class="cls-3" x1="185.37" y1="174.63" x2="224.33" y2="200.79"/><line class="cls-3" x1="224.23" y1="185.23" x2="176.5" y2="216.29"/><path class="cls-4" d="M80.16,341.84a32.11,32.11,0,1,1,8.41,8.43" transform="translate(-35.95 -140.4)"/><path class="cls-5" d="M119.75,323.73A12.79,12.79,0,1,1,107,311,12.79,12.79,0,0,1,119.75,323.73Z" transform="translate(-35.95 -140.4)"/><line class="cls-3" x1="122.3" y1="193.27" x2="166.2" y2="193.27"/><line class="cls-3" x1="122.3" y1="203.35" x2="166.2" y2="203.35"/><line class="cls-3" x1="122.3" y1="213.16" x2="166.2" y2="213.16"/><line class="cls-3" x1="112.75" y1="133.62" x2="112.75" y2="233.04"/><path class="cls-3" d="M87.23,373.7H74.92a9.93,9.93,0,0,1-9.9-9.9V283.92a9.94,9.94,0,0,1,9.9-9.9H203.09a9.93,9.93,0,0,1,9.9,9.9V363.8a9.92,9.92,0,0,1-9.9,9.9H99.63" transform="translate(-35.95 -140.4)"/><path class="cls-3" d="M78.26,272.6v-3.1A5.57,5.57,0,0,1,83.81,264H95.17a5.57,5.57,0,0,1,5.56,5.55v3.1" transform="translate(-35.95 -140.4)"/><path class="cls-3" d="M148.24,272.6v-2.11a5.57,5.57,0,0,1,5.55-5.55h11.36a5.57,5.57,0,0,1,5.56,5.55v2.11" transform="translate(-35.95 -140.4)"/><path class="cls-3" d="M177.16,272.6v-2.11a5.57,5.57,0,0,1,5.56-5.55h11.36a5.57,5.57,0,0,1,5.55,5.55v2.11" transform="translate(-35.95 -140.4)"/><circle class="cls-3" cx="153.72" cy="231.21" r="5.29" transform="translate(-112.72 -63.98) rotate(-22.5)"/><line class="cls-3" x1="63.42" y1="125.87" x2="112.22" y2="92.48"/><path class="cls-3" d="M195.69,299.85H167a8,8,0,1,1,0-16h28.66a8,8,0,1,1,0,16Z" transform="translate(-35.95 -140.4)"/><path class="cls-3" d="M174.77,316.37a8.52,8.52,0,1,1-8.52-8.52A8.52,8.52,0,0,1,174.77,316.37Z" transform="translate(-35.95 -140.4)"/><path class="cls-3" d="M204.47,316.37a8.52,8.52,0,1,1-8.52-8.52A8.52,8.52,0,0,1,204.47,316.37Z" transform="translate(-35.95 -140.4)"/><path class="cls-3" d="M282.32,369.52H270a9.92,9.92,0,0,1-9.9-9.9V279.74a9.93,9.93,0,0,1,9.9-9.9H398.19a9.94,9.94,0,0,1,9.9,9.9v79.88a9.93,9.93,0,0,1-9.9,9.9H294.72" transform="translate(-35.95 -140.4)"/><path class="cls-3" d="M346.92,281h7.35c3.26,0,5.92,3.19,5.92,7.08v57.07c0,3.89-2.66,7.07-5.92,7.07H277.72c-3.26,0-5.92-3.18-5.92-7.07V288.12c0-3.89,2.66-7.08,5.92-7.08h61.8" transform="translate(-35.95 -140.4)"/><line class="cls-3" x1="334.74" y1="129.41" x2="335.56" y2="229.03"/><path class="cls-4" d="M396.48,285.24a5.12,5.12,0,1,1-5.11-5.12A5.11,5.11,0,0,1,396.48,285.24Z" transform="translate(-35.95 -140.4)"/><path class="cls-4" d="M396.48,304.27a5.12,5.12,0,1,1-5.11-5.11A5.11,5.11,0,0,1,396.48,304.27Z" transform="translate(-35.95 -140.4)"/><path class="cls-4" d="M396.48,323.31a5.12,5.12,0,1,1-5.11-5.11A5.11,5.11,0,0,1,396.48,323.31Z" transform="translate(-35.95 -140.4)"/><line class="cls-3" x1="335.81" y1="199.26" x2="371.54" y2="199.26"/><line class="cls-3" x1="343.32" y1="206.93" x2="355.38" y2="206.93"/><line class="cls-3" x1="343.89" y1="214.33" x2="350.86" y2="214.33"/><path class="cls-3" d="M314.63,267.76h0a6.73,6.73,0,0,1,6.71-6.71h22.05a6.73,6.73,0,0,1,6.71,6.71" transform="translate(-35.95 -140.4)"/><line class="cls-3" x1="274.43" y1="99.97" x2="294.98" y2="120.65"/><line class="cls-3" x1="319.36" y1="99.97" x2="295.39" y2="120.51"/><path class="cls-3" d="M282.3,370.17h0a3.7,3.7,0,0,1-3.69,3.7H272a3.71,3.71,0,0,1-3.7-3.7" transform="translate(-35.95 -140.4)"/><path class="cls-3" d="M397.35,370.17h0a3.71,3.71,0,0,1-3.7,3.7h-6.57a3.7,3.7,0,0,1-3.7-3.7" transform="translate(-35.95 -140.4)"/><line class="cls-3" x1="16.79" y1="233.43" x2="431.19" y2="233.43"/><line class="cls-5" x1="6.76" y1="221.96" x2="6.76" y2="209.44"/><line class="cls-5" x1="0.5" y1="215.7" x2="13.02" y2="215.7"/><line class="cls-5" x1="292.33" y1="91.14" x2="300.58" y2="81.73"/><line class="cls-5" x1="291.75" y1="82.31" x2="301.17" y2="90.56"/><line class="cls-5" x1="36.22" y1="108" x2="38.34" y2="95.66"/><line class="cls-5" x1="31.11" y1="100.77" x2="43.45" y2="102.89"/><circle class="cls-5" cx="129.7" cy="207.52" r="4.17" transform="translate(-145 120.81) rotate(-70.67)"/><path class="cls-5" d="M455.22,342a4.18,4.18,0,1,1-4.18-4.17A4.17,4.17,0,0,1,455.22,342Z" transform="translate(-35.95 -140.4)"/><path class="cls-5" d="M390,238.83a4.18,4.18,0,1,1-4.17-4.18A4.17,4.17,0,0,1,390,238.83Z" transform="translate(-35.95 -140.4)"/><circle class="cls-5" cx="251.35" cy="165.26" r="4.17" transform="translate(-57.32 151.78) rotate(-58.28)"/><path class="cls-5" d="M241.89,355.59l3.66-1.07-1.07,3.66a6.17,6.17,0,0,0,0,3.51l1.07,3.66-3.66-1.07a6.2,6.2,0,0,0-3.52,0l-3.65,1.07,1.07-3.66a6.35,6.35,0,0,0,0-3.51l-1.07-3.66,3.65,1.07A6.2,6.2,0,0,0,241.89,355.59Z" transform="translate(-35.95 -140.4)"/><path class="cls-3" d="M446.83,232.32v14.41l19,10.33s5.28,4.32,3.84,13.68l-12.73,49.48L410.32,331l-.48-1.44" transform="translate(-35.95 -140.4)"/><polyline class="cls-3" points="413.76 132.99 405.36 166.61 373.9 174.05"/><polyline class="cls-3" points="401.04 108.97 392.15 104.17 376.06 111.85"/><path class="cls-3" d="M450.75,223.22a4,4,0,0,1,4.48,3.84c.48,4.33-3.84,5.26-8.4,4.54" transform="translate(-35.95 -140.4)"/><path class="cls-3" d="M454.51,216.71s3.84-14.89-12.73-18-16.57,13-16.57,13l-2.16,19.69s2.16,5.76,7.45,5.52" transform="translate(-35.95 -140.4)"/><polyline class="cls-4" points="400.07 117.13 398.39 156.28 392.63 162.52 386.14 156.28 393.11 115.93"/><polyline class="cls-3" points="287.34 42.17 317.86 67.22 371.86 5.98 400.42 25.93"/><path class="cls-6" d="M328.76,182.77a6.46,6.46,0,1,1-6.46-6.45,6.46,6.46,0,0,1,6.46,6.45" transform="translate(-35.95 -140.4)"/><path class="cls-3" d="M328.76,182.77a6.46,6.46,0,1,1-6.46-6.45A6.46,6.46,0,0,1,328.76,182.77Z" transform="translate(-35.95 -140.4)"/><path class="cls-6" d="M360.85,207.82a6.46,6.46,0,1,1-6.46-6.46,6.46,6.46,0,0,1,6.46,6.46" transform="translate(-35.95 -140.4)"/><path class="cls-3" d="M360.85,207.82a6.46,6.46,0,1,1-6.46-6.46A6.46,6.46,0,0,1,360.85,207.82Z" transform="translate(-35.95 -140.4)"/><path class="cls-6" d="M413.67,147.36a6.46,6.46,0,1,1-6.45-6.46,6.46,6.46,0,0,1,6.45,6.46" transform="translate(-35.95 -140.4)"/><path class="cls-3" d="M413.67,147.36a6.46,6.46,0,1,1-6.45-6.46A6.46,6.46,0,0,1,413.67,147.36Z" transform="translate(-35.95 -140.4)"/><polyline class="cls-3" points="25.79 49.34 56.31 74.38 106.01 37.99 134.58 57.95"/><path class="cls-6" d="M67.22,189.93a6.46,6.46,0,1,1-6.46-6.45,6.46,6.46,0,0,1,6.46,6.45" transform="translate(-35.95 -140.4)"/><path class="cls-3" d="M67.22,189.93a6.46,6.46,0,1,1-6.46-6.45A6.46,6.46,0,0,1,67.22,189.93Z" transform="translate(-35.95 -140.4)"/><path class="cls-6" d="M99.3,215a6.46,6.46,0,1,1-6.45-6.46A6.45,6.45,0,0,1,99.3,215" transform="translate(-35.95 -140.4)"/><path class="cls-3" d="M99.3,215a6.46,6.46,0,1,1-6.45-6.46A6.45,6.45,0,0,1,99.3,215Z" transform="translate(-35.95 -140.4)"/><path class="cls-6" d="M147.83,179.37a6.46,6.46,0,1,1-6.46-6.46,6.46,6.46,0,0,1,6.46,6.46" transform="translate(-35.95 -140.4)"/><path class="cls-3" d="M147.83,179.37a6.46,6.46,0,1,1-6.46-6.46A6.46,6.46,0,0,1,147.83,179.37Z" transform="translate(-35.95 -140.4)"/></g></g></g></g></svg>