<svg xmlns="http://www.w3.org/2000/svg" viewBox="0 0 333.15 152.9"><defs><style>.cls-1{fill:#e52b2d;}.cls-2{fill:#fff;}.cls-2,.cls-3{fill-rule:evenodd;}.cls-3{fill:#58595b;}</style></defs><title>Asset 1</title><g id="Layer_2" data-name="Layer 2"><g id="Layer_1-2" data-name="Layer 1"><path class="cls-1" d="M99.23,74.48V95.67A48.4,48.4,0,0,1,95.37,115a49.16,49.16,0,0,1-26.44,26.35,49.27,49.27,0,0,1-19.41,3.86,48.54,48.54,0,0,1-19.31-3.86A49.49,49.49,0,0,1,3.86,115,48.57,48.57,0,0,1,0,95.67v-3a11.93,11.93,0,0,1,.4-3A47.22,47.22,0,0,1,5.64,72.59a50.29,50.29,0,0,1,26-23.27A47.92,47.92,0,0,1,49.52,46a39.2,39.2,0,0,1,6.24.5q3.06.49,5.84.89l-4.75,20c-1.32-.26-2.55-.46-3.67-.59a31.8,31.8,0,0,0-3.66-.2,27.79,27.79,0,0,0-11.19,2.28,29.53,29.53,0,0,0-9.21,6.24,29.18,29.18,0,0,0-6.24,9.31A28.48,28.48,0,0,0,20.6,95.67a27.79,27.79,0,0,0,2.28,11.19,29.47,29.47,0,0,0,15.45,15.45,27.79,27.79,0,0,0,11.19,2.28,28.51,28.51,0,0,0,11.29-2.28,29.2,29.2,0,0,0,15.55-15.45,27.78,27.78,0,0,0,2.27-11.19V0l20.6,20.2Z"/><polygon class="cls-1" points="127.56 100.42 127.56 145.19 107.16 145.19 107.16 67.54 107.16 46.15 127.56 46.15 127.56 100.42"/><polygon class="cls-1" points="224.02 45.76 239.07 60.81 230.56 76.65 194.71 145.19 179.45 145.19 139.05 67.94 135.48 60.81 150.53 45.76 174.11 91.31 186.98 116.27 197.68 96.26 224.02 45.76"/><path class="cls-1" d="M283.63,46.15A48.11,48.11,0,0,1,302.75,50a49.9,49.9,0,0,1,15.74,10.6,51.13,51.13,0,0,1,10.7,15.75,49.06,49.06,0,0,1,0,38.62,49.86,49.86,0,0,1-10.7,15.65,50.82,50.82,0,0,1-15.74,10.5A48.11,48.11,0,0,1,283.63,145h-.1v-20.6h.1a29.24,29.24,0,0,0,20.5-8.42,29,29,0,0,0,6.14-9.11,27.79,27.79,0,0,0,2.28-11.19,28.88,28.88,0,0,0-28.92-28.92h-.1V46.15Zm-.1,98.84a48.47,48.47,0,0,1-19.21-3.86A48.77,48.77,0,0,1,238.17,115a50.23,50.23,0,0,1,0-38.62,50.75,50.75,0,0,1,10.5-15.75,48.8,48.8,0,0,1,34.86-14.46v20.6A28.41,28.41,0,0,0,272.34,69,30.05,30.05,0,0,0,263,75.17a28,28,0,0,0-6.24,9.21,28.47,28.47,0,0,0-2.27,11.29,27.78,27.78,0,0,0,2.27,11.19A28.31,28.31,0,0,0,263,116a30.05,30.05,0,0,0,9.31,6.14,28.41,28.41,0,0,0,11.19,2.28Z"/><path class="cls-2" d="M256.52,142.73l-15.76,5.14,2.44-7.38,1.74-5.3c.33-1,.65-2,1-3l-10.27-10.27,45-13.93-13.93,45Z"/><path class="cls-3" d="M274.65,113.92l-9.79,31.59-7.27-7.27-10.65,3.48,1.73-5.3q1.52-4.54,1.8-5.3l-7.42-7.41Z"/></g></g></svg>